<?xml version="1.0" standalone="no"?>
<!DOCTYPE svg PUBLIC "-//W3C//DTD SVG 20010904//EN"
 "http://www.w3.org/TR/2001/REC-SVG-20010904/DTD/svg10.dtd">
<svg version="1.0" xmlns="http://www.w3.org/2000/svg"
 width="512.000000pt" height="512.000000pt" viewBox="0 0 512.000000 512.000000"
 preserveAspectRatio="xMidYMid meet">

<g transform="translate(0.000000,512.000000) scale(0.100000,-0.100000)"
fill="#e9ebf8" stroke="none">
<path d="M1788 5104 c-54 -29 -56 -44 -114 -623 -57 -581 -60 -630 -43 -713
15 -73 80 -203 129 -260 59 -68 164 -134 264 -166 l86 -27 0 -255 0 -255 -82
-18 c-92 -18 -288 -89 -329 -118 -27 -19 -59 -84 -59 -119 0 -20 -8 -20 -417
-20 -397 0 -420 -1 -450 -20 -52 -31 -66 -70 -61 -165 3 -65 10 -91 30 -126
36 -60 83 -103 143 -131 49 -22 59 -23 403 -26 l353 -3 -88 -59 c-135 -90
-274 -219 -379 -352 -17 -22 -28 -26 -70 -25 -77 1 -109 -23 -177 -133 -44
-74 -64 -97 -85 -102 -16 -4 -36 -16 -44 -25 -38 -43 -638 -1076 -649 -1116
-19 -78 18 -165 92 -214 l43 -28 595 0 596 0 32 23 c24 17 76 102 198 322 91
164 170 311 176 327 7 20 7 39 -1 69 -11 40 -10 44 36 125 58 102 67 160 36
213 l-21 35 36 30 c19 16 56 35 82 42 85 25 160 15 396 -52 207 -59 226 -62
325 -62 82 0 118 5 164 21 80 29 375 201 393 229 10 14 12 33 8 52 -7 35 -20
47 -57 56 -23 6 -53 -8 -177 -79 -215 -124 -230 -130 -331 -130 -73 0 -113 8
-285 57 -251 72 -312 82 -408 67 -92 -14 -164 -47 -224 -103 l-48 -45 -262
167 c-144 91 -263 169 -263 173 0 17 222 236 297 292 109 82 242 152 334 175
115 29 334 54 419 48 76 -6 512 -122 569 -152 56 -28 65 -119 16 -151 -22 -14
-46 -13 -285 18 l-262 33 -24 -28 c-30 -35 -31 -71 -1 -100 20 -20 51 -26 289
-57 236 -30 272 -32 310 -21 40 12 94 59 138 118 20 28 778 343 823 343 71 0
121 -77 94 -142 -22 -51 -57 -77 -274 -203 -243 -140 -262 -160 -210 -221 16
-18 33 -27 53 -27 39 1 440 235 498 291 62 60 90 121 90 197 0 33 -6 70 -12
82 l-12 22 307 3 c297 3 310 4 358 26 128 59 199 190 175 321 -7 40 -19 64
-40 86 l-30 30 -430 3 -430 3 0 25 c0 33 -23 85 -47 107 -38 33 -279 118 -375
132 l-48 7 0 258 0 258 53 12 c242 51 437 295 437 545 0 66 -45 568 -55 613
-8 32 -41 62 -69 62 -14 0 -37 -11 -52 -24 l-28 -23 10 -113 c11 -133 12 -131
-106 -138 -93 -5 -137 6 -225 60 -39 23 -92 50 -120 61 -61 23 -196 33 -249
18 -22 -6 -42 -9 -44 -7 -2 3 9 135 25 295 l28 291 316 0 316 0 11 -92 c8 -76
14 -95 32 -110 31 -25 72 -23 99 6 22 24 23 29 16 128 -9 130 -21 166 -64 195
-34 23 -35 23 -403 23 -406 0 -423 -2 -453 -60 -21 -40 -129 -1144 -120 -1230
18 -190 138 -365 307 -450 42 -21 102 -44 133 -51 l55 -12 0 -257 0 -256 -70
-12 c-103 -18 -328 -101 -361 -134 -16 -16 -32 -48 -39 -78 l-12 -50 -98 0
-97 0 -6 40 c-7 54 -41 98 -96 122 -84 36 -275 97 -328 104 l-53 7 0 258 c0
240 1 259 18 259 9 0 54 13 99 29 217 75 363 265 379 491 8 105 -98 1176 -121
1219 -31 60 -37 61 -447 61 -310 -1 -378 -3 -400 -16z m751 -466 c17 -183 31
-341 31 -350 0 -22 -56 -38 -135 -38 -79 0 -116 11 -200 61 -38 22 -92 50
-120 61 -60 24 -194 35 -249 19 -22 -6 -42 -8 -45 -6 -2 3 8 130 22 283 15
152 27 283 27 290 0 9 70 12 318 12 l319 0 32 -332z m-469 -411 c30 -13 78
-38 105 -56 83 -53 170 -74 284 -68 53 2 103 8 113 12 14 5 17 -4 25 -62 4
-37 8 -113 8 -168 0 -93 -3 -105 -34 -172 -40 -87 -123 -172 -203 -208 -248
-113 -537 34 -590 299 -9 46 -9 92 2 209 7 83 16 162 20 176 15 58 169 80 270
38z m1269 13 c19 -5 73 -32 120 -59 120 -69 181 -85 300 -78 53 2 103 8 112
11 22 9 27 -12 35 -160 6 -107 4 -129 -15 -191 -24 -82 -88 -175 -147 -215
-264 -182 -608 -43 -666 269 -8 46 -7 95 6 223 9 91 20 168 24 172 32 32 164
48 231 28z m-974 -1610 c99 -27 218 -75 223 -89 3 -8 -101 -11 -398 -11 -297
0 -401 3 -398 11 4 13 120 60 218 89 92 26 261 27 355 0z m1399 -31 c66 -24
121 -50 124 -56 3 -10 -81 -13 -398 -13 -292 0 -401 3 -398 11 4 13 94 50 208
85 67 21 90 24 210 21 131 -4 138 -5 254 -48z m1058 -259 c-3 -39 -25 -74 -66
-104 l-27 -21 -1888 0 c-1802 0 -1888 1 -1914 18 -38 24 -67 75 -67 115 l0 32
1983 -2 1982 -3 -3 -35z m-1353 -284 c-8 -7 -370 -156 -379 -156 -6 0 -10 6
-10 13 0 25 -53 89 -98 118 l-46 29 269 0 c147 0 266 -2 264 -4z m-2002 -817
c192 -121 350 -222 351 -224 3 -3 -61 -126 -74 -143 -2 -3 -707 441 -726 457
-13 11 72 143 88 137 8 -3 170 -105 361 -227z m-148 -279 c220 -140 401 -259
401 -264 0 -4 -66 -129 -147 -277 l-148 -268 -546 -1 c-585 0 -579 -1 -582 51
-1 15 102 200 287 514 159 270 293 496 299 502 5 7 15 9 22 5 7 -4 193 -122
414 -262z"/>
</g>
</svg>
