<?xml version="1.0" encoding="UTF-8"?>
<!DOCTYPE svg PUBLIC "-//W3C//DTD SVG 1.1//EN" "http://www.w3.org/Graphics/SVG/1.1/DTD/svg11.dtd">
<svg xmlns="http://www.w3.org/2000/svg" version="1.1" width="512px" height="512px" style="shape-rendering:geometricPrecision; text-rendering:geometricPrecision; image-rendering:optimizeQuality; fill-rule:evenodd; clip-rule:evenodd" xmlns:xlink="http://www.w3.org/1999/xlink">
<g><path style="opacity:0.938" fill="#000000" d="M 287.5,-0.5 C 291.833,-0.5 296.167,-0.5 300.5,-0.5C 310.13,3.14464 315.797,10.1446 317.5,20.5C 358.104,45.7072 376.437,82.3739 372.5,130.5C 393.287,130.461 402.12,140.794 399,161.5C 397.102,166.22 394.269,170.22 390.5,173.5C 394.943,192.342 388.943,206.842 372.5,217C 367.754,219.27 362.754,220.437 357.5,220.5C 352.795,252.594 337.795,278.594 312.5,298.5C 311.335,308.149 311.168,317.816 312,327.5C 313.008,329.259 314.508,330.426 316.5,331C 346.167,342.667 375.833,354.333 405.5,366C 422.149,374.78 432.982,388.28 438,406.5C 449.497,436.813 454.497,468.146 453,500.5C 451.316,506.016 447.816,509.682 442.5,511.5C 412.833,511.5 383.167,511.5 353.5,511.5C 347.521,504.895 348.521,499.729 356.5,496C 359.146,495.503 361.813,495.336 364.5,495.5C 364.667,479.497 364.5,463.497 364,447.5C 363.751,444.823 362.751,442.49 361,440.5C 355,433.833 349,427.167 343,420.5C 340.449,416.065 338.449,411.399 337,406.5C 335.922,389.528 335.089,372.528 334.5,355.5C 331.087,354.362 327.754,353.029 324.5,351.5C 332.013,403.316 310.013,423.983 258.5,413.5C 258.5,420.5 258.5,427.5 258.5,434.5C 266.279,434.068 273.946,434.568 281.5,436C 283.378,437.543 284.878,439.376 286,441.5C 286.667,451.167 286.667,460.833 286,470.5C 284.01,474.49 280.843,476.99 276.5,478C 270.509,478.499 264.509,478.666 258.5,478.5C 258.5,484.167 258.5,489.833 258.5,495.5C 281.836,495.333 305.169,495.5 328.5,496C 336.479,499.729 337.479,504.895 331.5,511.5C 243.833,511.5 156.167,511.5 68.5,511.5C 63.1844,509.682 59.6844,506.016 58,500.5C 56.4843,464.411 62.8176,429.744 77,396.5C 82.6718,383.828 91.5051,373.995 103.5,367C 133.754,354.804 164.087,342.804 194.5,331C 196.492,330.426 197.992,329.259 199,327.5C 199.667,317.833 199.667,308.167 199,298.5C 173.316,278.819 158.149,252.819 153.5,220.5C 136.321,218.485 125.488,209.152 121,192.5C 120.21,186.448 120.376,180.448 121.5,174.5C 109.508,162.6 108.508,149.933 118.5,136.5C 125.192,131.075 132.859,129.075 141.5,130.5C 137.691,91.9874 149.691,59.4874 177.5,33C 182.724,28.7771 188.224,24.9437 194,21.5C 197.259,4.60878 207.425,-2.22455 224.5,1C 228.016,2.25587 231.016,4.25587 233.5,7C 234.667,7.16667 235.833,7.33333 237,7.5C 249.509,6.19736 262.009,6.19736 274.5,7.5C 278.39,4.05769 282.724,1.39102 287.5,-0.5 Z M 214.5,16.5 C 217.97,15.8748 220.804,16.8748 223,19.5C 223.5,56.4985 223.667,93.4985 223.5,130.5C 219.167,130.5 214.833,130.5 210.5,130.5C 210.666,120.161 210.5,109.828 210,99.5C 206.726,94.2625 202.226,93.0958 196.5,96C 195.874,96.7504 195.374,97.5838 195,98.5C 194.5,109.161 194.333,119.828 194.5,130.5C 182.167,130.5 169.833,130.5 157.5,130.5C 153.815,94.2387 165.815,64.572 193.5,41.5C 194.332,52.8187 194.832,64.152 195,75.5C 196.529,78.516 199.029,79.8494 202.5,79.5C 205.325,79.8809 207.491,78.8809 209,76.5C 210.308,57.9234 210.975,39.2567 211,20.5C 211.69,18.6498 212.856,17.3164 214.5,16.5 Z M 290.5,16.5 C 294.684,15.7036 297.85,17.037 300,20.5C 300.5,57.1652 300.667,93.8318 300.5,130.5C 296.167,130.5 291.833,130.5 287.5,130.5C 287.333,93.4985 287.5,56.4985 288,19.5C 289.045,18.6266 289.878,17.6266 290.5,16.5 Z M 243.5,22.5 C 252.751,22.1822 261.917,22.5155 271,23.5C 271.5,59.1651 271.667,94.8318 271.5,130.5C 261.167,130.5 250.833,130.5 240.5,130.5C 240.5,94.8333 240.5,59.1667 240.5,23.5C 241.791,23.7373 242.791,23.404 243.5,22.5 Z M 316.5,39.5 C 337.328,53.7913 350.161,73.4579 355,98.5C 356.276,109.127 356.776,119.793 356.5,130.5C 343.167,130.5 329.833,130.5 316.5,130.5C 316.5,100.167 316.5,69.8333 316.5,39.5 Z M 131.5,146.5 C 214.167,146.333 296.834,146.5 379.5,147C 383.212,149.513 384.378,153.013 383,157.5C 381.681,159.487 379.848,160.654 377.5,161C 296.167,161.667 214.833,161.667 133.5,161C 129.723,160.221 127.723,157.888 127.5,154C 127.927,150.977 129.261,148.477 131.5,146.5 Z M 137.5,177.5 C 141.833,177.5 146.167,177.5 150.5,177.5C 150.831,186.192 150.498,194.859 149.5,203.5C 138.464,198.095 134.464,189.428 137.5,177.5 Z M 166.5,177.5 C 225.833,177.5 285.167,177.5 344.5,177.5C 345.96,201.737 342.127,225.07 333,247.5C 320.453,272.712 300.953,290.212 274.5,300C 255.237,304.956 236.903,302.623 219.5,293C 186.107,271.513 168.607,240.68 167,200.5C 166.5,192.841 166.334,185.174 166.5,177.5 Z M 360.5,203.5 C 360.5,194.833 360.5,186.167 360.5,177.5C 365.179,177.334 369.845,177.501 374.5,178C 377.465,187.112 375.132,194.778 367.5,201C 365.35,202.411 363.016,203.245 360.5,203.5 Z M 215.5,309.5 C 242.006,321.485 268.506,321.485 295,309.5C 295.667,314.833 295.667,320.167 295,325.5C 278.158,348.335 256.991,353.502 231.5,341C 225.667,336.5 220.5,331.333 216,325.5C 215.501,320.177 215.334,314.844 215.5,309.5 Z M 206.5,342.5 C 210.568,345.381 214.568,348.547 218.5,352C 243.16,368.661 267.827,368.661 292.5,352C 296.32,349.18 299.82,346.013 303,342.5C 304.285,342.95 305.452,343.617 306.5,344.5C 306.833,351.5 307.167,358.5 307.5,365.5C 307.619,373.573 307.119,381.573 306,389.5C 304.108,393.058 301.275,395.558 297.5,397C 269.5,397.667 241.5,397.667 213.5,397C 208.572,395.073 205.406,391.573 204,386.5C 203.167,372.488 203.334,358.488 204.5,344.5C 205.522,344.145 206.189,343.478 206.5,342.5 Z M 185.5,351.5 C 187.318,363.794 188.151,376.46 188,389.5C 191.085,401.585 198.585,409.418 210.5,413C 221.161,413.5 231.828,413.667 242.5,413.5C 242.5,420.5 242.5,427.5 242.5,434.5C 230.162,434.333 217.829,434.5 205.5,435C 198.097,440.023 195.43,447.023 197.5,456C 197.667,460.167 197.833,464.333 198,468.5C 198.668,472.499 200.835,475.332 204.5,477C 217.092,478.441 229.759,478.941 242.5,478.5C 242.5,484.167 242.5,489.833 242.5,495.5C 210.5,495.5 178.5,495.5 146.5,495.5C 146.058,478.444 146.558,461.444 148,444.5C 152.541,436.952 158.208,430.286 165,424.5C 170.53,417.437 173.863,409.437 175,400.5C 175.167,385.489 175.667,370.489 176.5,355.5C 179.769,354.531 182.769,353.198 185.5,351.5 Z M 157.5,362.5 C 158.829,368.128 159.496,374.128 159.5,380.5C 161.361,392.918 158.861,404.252 152,414.5C 146.301,419.865 140.967,425.531 136,431.5C 134.392,434.382 133.059,437.382 132,440.5C 130.567,458.786 130.067,477.12 130.5,495.5C 111.5,495.5 92.5,495.5 73.5,495.5C 73.364,461.679 80.1973,429.346 94,398.5C 97.7892,392.377 102.622,387.21 108.5,383C 124.923,376.114 141.256,369.281 157.5,362.5 Z M 351.5,362.5 C 368.705,368.767 385.705,375.6 402.5,383C 408.378,387.21 413.211,392.377 417,398.5C 430.803,429.346 437.636,461.679 437.5,495.5C 418.5,495.5 399.5,495.5 380.5,495.5C 380.933,477.12 380.433,458.786 379,440.5C 377.941,437.382 376.608,434.382 375,431.5C 370.033,425.531 364.699,419.865 359,414.5C 356.565,411.066 354.565,407.4 353,403.5C 351.594,389.885 351.094,376.218 351.5,362.5 Z M 213.5,450.5 C 232.5,450.5 251.5,450.5 270.5,450.5C 270.5,454.5 270.5,458.5 270.5,462.5C 251.5,462.5 232.5,462.5 213.5,462.5C 213.5,458.5 213.5,454.5 213.5,450.5 Z"/></g>
</svg>
