<?xml version="1.0" encoding="UTF-8"?>
<!DOCTYPE svg PUBLIC "-//W3C//DTD SVG 1.1//EN" "http://www.w3.org/Graphics/SVG/1.1/DTD/svg11.dtd">
<svg xmlns="http://www.w3.org/2000/svg" version="1.1" width="512px" height="512px" style="shape-rendering:geometricPrecision; text-rendering:geometricPrecision; image-rendering:optimizeQuality; fill-rule:evenodd; clip-rule:evenodd" xmlns:xlink="http://www.w3.org/1999/xlink">
<g><path style="opacity:0.933" fill="#000000" d="M 208.5,-0.5 C 215.833,-0.5 223.167,-0.5 230.5,-0.5C 243.847,2.31652 255.18,8.81652 264.5,19C 278.605,17.1518 292.272,18.8185 305.5,24C 311.596,31.0102 310.263,36.1769 301.5,39.5C 296.53,37.8988 291.53,36.3988 286.5,35C 278.425,34.4827 270.425,34.8161 262.5,36C 256.058,33.568 250.724,29.568 246.5,24C 228.5,12.6667 210.5,12.6667 192.5,24C 188.276,29.568 182.942,33.568 176.5,36C 148.634,30.0166 128.801,39.8499 117,65.5C 111.688,88.2205 118.688,106.22 138,119.5C 140.31,124.266 140.977,129.266 140,134.5C 138.002,149.155 136.168,163.821 134.5,178.5C 192.174,170.748 249.84,170.748 307.5,178.5C 305.332,161.153 302.998,143.82 300.5,126.5C 301.026,123.728 301.859,121.062 303,118.5C 323.483,102.404 328.817,82.4036 319,58.5C 317.242,52.0076 319.575,48.0076 326,46.5C 328.887,46.9031 331.221,48.2365 333,50.5C 346.052,79.4341 341.052,104.767 318,126.5C 319.419,144.859 321.419,163.193 324,181.5C 324.5,187.825 324.666,194.158 324.5,200.5C 343.793,203.045 351.959,214.045 349,233.5C 345.214,245.291 337.214,251.957 325,253.5C 321.145,289.249 304.145,316.582 274,335.5C 273.294,341.588 275.794,345.755 281.5,348C 311.093,358.198 340.759,368.198 370.5,378C 373.912,379.455 377.079,381.288 380,383.5C 380.667,378.833 380.667,374.167 380,369.5C 379.535,368.069 378.701,366.903 377.5,366C 371.61,364.755 365.61,364.088 359.5,364C 350.771,361.605 344.938,356.105 342,347.5C 341.333,319.5 341.333,291.5 342,263.5C 344.938,254.895 350.771,249.395 359.5,247C 392.833,246.333 426.167,246.333 459.5,247C 467.477,248.975 472.977,253.808 476,261.5C 477.133,276.115 477.633,290.782 477.5,305.5C 477.633,320.218 477.133,334.885 476,349.5C 472.977,357.192 467.477,362.025 459.5,364C 454.167,364.333 448.833,364.667 443.5,365C 441.714,365.785 440.214,366.951 439,368.5C 438.333,385.5 438.333,402.5 439,419.5C 447.27,424.363 452.937,431.363 456,440.5C 457.595,454.444 457.928,468.444 457,482.5C 453.535,497.129 444.702,506.796 430.5,511.5C 411.833,511.5 393.167,511.5 374.5,511.5C 368.546,509.043 364.379,504.71 362,498.5C 361.333,475.5 361.333,452.5 362,429.5C 365.139,420.864 371.306,416.198 380.5,415.5C 380.666,411.486 380.499,407.486 380,403.5C 376.434,400.301 372.6,397.467 368.5,395C 341.306,385.491 314.139,375.991 287,366.5C 255.968,380.933 225.135,395.766 194.5,411C 189.927,415.314 186.761,420.48 185,426.5C 184.667,452.833 184.333,479.167 184,505.5C 183.436,507.887 182.27,509.887 180.5,511.5C 177.833,511.5 175.167,511.5 172.5,511.5C 170.856,510.684 169.69,509.35 169,507.5C 168.333,479.833 168.333,452.167 169,424.5C 171.549,411.629 178.382,401.796 189.5,395C 177.897,385.554 165.897,376.721 153.5,368.5C 129.061,376.368 104.728,384.535 80.5,393C 63.432,401.303 53.2653,414.803 50,433.5C 49.6667,458.167 49.3333,482.833 49,507.5C 48.3103,509.35 47.1436,510.684 45.5,511.5C 42.8333,511.5 40.1667,511.5 37.5,511.5C 36.1639,509.99 34.9973,508.323 34,506.5C 33.3333,481.833 33.3333,457.167 34,432.5C 37.5706,406.933 51.0706,388.766 74.5,378C 104.833,367.667 135.167,357.333 165.5,347C 169.555,344.411 170.888,340.911 169.5,336.5C 159.996,331.169 151.496,324.502 144,316.5C 140.34,306.32 143.84,302.154 154.5,304C 183.201,333.258 216.868,340.925 255.5,327C 284.954,312.949 302.454,289.782 308,257.5C 308.5,236.503 308.667,215.503 308.5,194.5C 261.945,188.718 215.278,187.552 168.5,191C 156.486,192.101 144.486,193.268 132.5,194.5C 132.136,216.193 132.636,237.859 134,259.5C 135.527,266.94 137.36,274.273 139.5,281.5C 138.657,287.933 134.991,290.433 128.5,289C 127.069,288.535 125.903,287.701 125,286.5C 120.759,275.869 117.925,264.869 116.5,253.5C 95.8846,248.603 88.3846,235.936 94,215.5C 98.6183,206.112 106.118,201.112 116.5,200.5C 118.179,177.065 120.846,153.732 124.5,130.5C 120.266,125.763 115.766,121.096 111,116.5C 93.4296,89.2055 94.7629,62.8722 115,37.5C 131.737,21.6859 151.57,15.5193 174.5,19C 183.82,8.81652 195.153,2.31652 208.5,-0.5 Z M 114.5,216.5 C 116.459,222.75 117.126,229.416 116.5,236.5C 108.174,233.692 106.008,228.359 110,220.5C 111.397,218.93 112.897,217.596 114.5,216.5 Z M 324.5,216.5 C 333.138,218.781 335.638,224.114 332,232.5C 330.117,235.024 327.617,236.358 324.5,236.5C 324.5,229.833 324.5,223.167 324.5,216.5 Z M 362.5,262.5 C 393.835,262.333 425.168,262.5 456.5,263C 458.667,263.833 460.167,265.333 461,267.5C 461.667,292.833 461.667,318.167 461,343.5C 460.167,345.667 458.667,347.167 456.5,348C 444.315,346.077 434.149,349.577 426,358.5C 424.725,360.717 423.725,363.051 423,365.5C 422.5,382.163 422.333,398.83 422.5,415.5C 413.833,415.5 405.167,415.5 396.5,415.5C 396.667,399.497 396.5,383.497 396,367.5C 393.918,357.752 388.084,351.585 378.5,349C 373.167,348.667 367.833,348.333 362.5,348C 360.714,347.215 359.214,346.049 358,344.5C 357.333,318.5 357.333,292.5 358,266.5C 359.397,264.93 360.897,263.596 362.5,262.5 Z M 256.5,343.5 C 259.415,348.452 262.748,353.286 266.5,358C 246.545,367.893 226.379,377.393 206,386.5C 194.441,379.107 183.607,370.774 173.5,361.5C 179.892,357.454 183.892,351.787 185.5,344.5C 203.942,350.035 222.609,351.201 241.5,348C 246.758,346.966 251.758,345.466 256.5,343.5 Z M 379.5,431.5 C 394.837,431.333 410.17,431.5 425.5,432C 434.036,433.869 439.203,439.036 441,447.5C 441.667,458.5 441.667,469.5 441,480.5C 438.163,489.672 431.996,494.839 422.5,496C 408.5,496.667 394.5,496.667 380.5,496C 379.584,495.626 378.75,495.126 378,494.5C 377.333,474.167 377.333,453.833 378,433.5C 378.717,432.956 379.217,432.289 379.5,431.5 Z"/></g>
<g><path style="opacity:0.909" fill="#000000" d="M 170.5,92.5 C 175.223,91.5531 179.056,92.8864 182,96.5C 187,108.5 192,120.5 197,132.5C 198.801,139.236 196.301,143.236 189.5,144.5C 184.321,143.183 181.154,139.85 180,134.5C 175.667,123.833 171.333,113.167 167,102.5C 166.182,98.4695 167.349,95.1361 170.5,92.5 Z"/></g>
<g><path style="opacity:0.919" fill="#000000" d="M 215.5,92.5 C 220.742,91.2706 224.575,92.9372 227,97.5C 227.667,111.5 227.667,125.5 227,139.5C 222,146.167 217,146.167 212,139.5C 211.333,125.5 211.333,111.5 212,97.5C 212.997,95.6769 214.164,94.0103 215.5,92.5 Z"/></g>
<g><path style="opacity:0.909" fill="#000000" d="M 260.5,92.5 C 268.614,91.1209 272.447,94.4543 272,102.5C 266.987,115.704 261.487,128.704 255.5,141.5C 251.385,145.378 247.219,145.378 243,141.5C 241.543,138.634 241.21,135.634 242,132.5C 247,120.5 252,108.5 257,96.5C 258.376,95.2949 259.542,93.9616 260.5,92.5 Z"/></g>
<g><path style="opacity:0.906" fill="#000000" d="M 174.5,218.5 C 179.998,217.99 183.498,220.323 185,225.5C 185.667,231.5 185.667,237.5 185,243.5C 182.609,249.468 178.442,251.302 172.5,249C 171.299,248.097 170.465,246.931 170,245.5C 169.333,237.833 169.333,230.167 170,222.5C 171.397,220.93 172.897,219.596 174.5,218.5 Z"/></g>
<g><path style="opacity:0.898" fill="#000000" d="M 261.5,218.5 C 266.28,217.641 269.78,219.308 272,223.5C 272.667,230.833 272.667,238.167 272,245.5C 269.005,249.723 265.171,250.889 260.5,249C 258.951,247.786 257.785,246.286 257,244.5C 256.333,237.5 256.333,230.5 257,223.5C 258.025,221.313 259.525,219.646 261.5,218.5 Z"/></g>
<g><path style="opacity:0.903" fill="#000000" d="M 204.5,273.5 C 210.061,274.558 215.561,275.891 221,277.5C 224.817,277.344 228.317,276.178 231.5,274C 239.667,272.833 243.167,276.333 242,284.5C 238.774,289.205 234.274,292.038 228.5,293C 219.126,294.718 210.459,293.051 202.5,288C 198.128,282.408 198.794,277.575 204.5,273.5 Z"/></g>
<g><path style="opacity:0.916" fill="#000000" d="M 376.5,276.5 C 381.28,275.641 384.78,277.308 387,281.5C 387.667,297.5 387.667,313.5 387,329.5C 383.987,334.535 379.82,335.702 374.5,333C 373.299,332.097 372.465,330.931 372,329.5C 371.333,313.5 371.333,297.5 372,281.5C 373.025,279.313 374.525,277.646 376.5,276.5 Z"/></g>
<g><path style="opacity:0.916" fill="#000000" d="M 406.5,276.5 C 411.28,275.641 414.78,277.308 417,281.5C 417.667,297.5 417.667,313.5 417,329.5C 413.987,334.535 409.82,335.702 404.5,333C 403.299,332.097 402.465,330.931 402,329.5C 401.333,313.5 401.333,297.5 402,281.5C 403.025,279.313 404.525,277.646 406.5,276.5 Z"/></g>
<g><path style="opacity:0.916" fill="#000000" d="M 436.5,276.5 C 441.28,275.641 444.78,277.308 447,281.5C 447.667,297.5 447.667,313.5 447,329.5C 443.987,334.535 439.82,335.702 434.5,333C 433.299,332.097 432.465,330.931 432,329.5C 431.333,313.5 431.333,297.5 432,281.5C 433.025,279.313 434.525,277.646 436.5,276.5 Z"/></g>
<g><path style="opacity:0.869" fill="#000000" d="M 211.5,431.5 C 219.614,430.121 223.447,433.454 223,441.5C 220.565,446.224 216.731,447.724 211.5,446C 207.788,443.487 206.622,439.987 208,435.5C 208.69,433.65 209.856,432.316 211.5,431.5 Z"/></g>
<g><path style="opacity:0.869" fill="#000000" d="M 256.5,431.5 C 264.614,430.121 268.447,433.454 268,441.5C 265.565,446.224 261.731,447.724 256.5,446C 252.788,443.487 251.622,439.987 253,435.5C 253.69,433.65 254.856,432.316 256.5,431.5 Z"/></g>
<g><path style="opacity:0.923" fill="#000000" d="M 120.5,511.5 C 117.833,511.5 115.167,511.5 112.5,511.5C 111.164,509.99 109.997,508.323 109,506.5C 108.333,489.833 108.333,473.167 109,456.5C 112.274,451.262 116.774,450.096 122.5,453C 123.126,453.75 123.626,454.584 124,455.5C 124.667,472.833 124.667,490.167 124,507.5C 123.31,509.35 122.144,510.684 120.5,511.5 Z"/></g>
<g><path style="opacity:0.869" fill="#000000" d="M 211.5,476.5 C 219.614,475.121 223.447,478.454 223,486.5C 220.565,491.224 216.731,492.724 211.5,491C 207.788,488.487 206.622,484.987 208,480.5C 208.69,478.65 209.856,477.316 211.5,476.5 Z"/></g>
<g><path style="opacity:0.869" fill="#000000" d="M 256.5,476.5 C 264.614,475.121 268.447,478.454 268,486.5C 265.565,491.224 261.731,492.724 256.5,491C 252.788,488.487 251.622,484.987 253,480.5C 253.69,478.65 254.856,477.316 256.5,476.5 Z"/></g>
</svg>
