<?xml version="1.0" encoding="UTF-8"?>
<!DOCTYPE svg PUBLIC "-//W3C//DTD SVG 1.1//EN" "http://www.w3.org/Graphics/SVG/1.1/DTD/svg11.dtd">
<svg xmlns="http://www.w3.org/2000/svg" version="1.1" width="512px" height="512px" style="shape-rendering:geometricPrecision; text-rendering:geometricPrecision; image-rendering:optimizeQuality; fill-rule:evenodd; clip-rule:evenodd" xmlns:xlink="http://www.w3.org/1999/xlink">
<g><path style="opacity:0.948" fill="#e9ebf8" d="M 191.5,-0.5 C 199.833,-0.5 208.167,-0.5 216.5,-0.5C 229.805,2.56735 241.972,8.23401 253,16.5C 281.488,5.03801 305.155,11.3713 324,35.5C 331.715,48.5722 334.215,62.5722 331.5,77.5C 377.867,86.2079 424.533,88.3746 471.5,84C 484.718,87.342 493.218,95.5087 497,108.5C 498.147,149.806 498.647,191.139 498.5,232.5C 498.632,275.518 498.132,318.518 497,361.5C 495.266,372.034 491.933,382.034 487,391.5C 478.751,403.663 470.751,415.996 463,428.5C 461.985,432.765 461.485,437.098 461.5,441.5C 462.762,462.5 463.595,483.5 464,504.5C 463.033,507.621 461.2,509.954 458.5,511.5C 455.5,511.5 452.5,511.5 449.5,511.5C 447.193,510.023 445.36,508.023 444,505.5C 442.017,480.196 441.017,454.863 441,429.5C 442.212,423.075 444.545,417.075 448,411.5C 456.79,399.367 464.79,386.7 472,373.5C 473.741,368.946 475.074,364.279 476,359.5C 477.612,315.521 477.945,271.521 477,227.5C 475.283,220.226 470.783,217.393 463.5,219C 461.376,220.122 459.543,221.622 458,223.5C 456.698,246.103 456.031,268.77 456,291.5C 454.833,294 453,295.833 450.5,297C 443.563,299.22 438.73,297.053 436,290.5C 435.667,260.167 435.333,229.833 435,199.5C 431.252,193.458 426.085,191.958 419.5,195C 417.951,196.214 416.785,197.714 416,199.5C 415.667,229.833 415.333,260.167 415,290.5C 414.214,293.583 412.381,295.749 409.5,297C 403.11,298.942 398.277,297.109 395,291.5C 394.667,250.167 394.333,208.833 394,167.5C 391.107,159.971 385.94,157.805 378.5,161C 376.951,162.214 375.785,163.714 375,165.5C 374.667,206.5 374.333,247.5 374,288.5C 372.006,296.789 366.839,299.622 358.5,297C 357,295.5 355.5,294 354,292.5C 353.667,261.5 353.333,230.5 353,199.5C 350.947,191.056 345.78,188.222 337.5,191C 335.19,192.637 333.69,194.804 333,197.5C 332.667,239.5 332.333,281.5 332,323.5C 329.27,330.053 324.437,332.22 317.5,330C 315.714,329.215 314.214,328.049 313,326.5C 311.98,313.181 310.98,299.847 310,286.5C 306.485,278.316 300.485,272.982 292,270.5C 291.333,296.167 291.333,321.833 292,347.5C 293.014,360.208 297.014,371.874 304,382.5C 313.267,393.77 323.267,404.436 334,414.5C 338.751,421.08 341.751,428.413 343,436.5C 342.806,459.19 341.806,481.857 340,504.5C 339.062,507.598 337.228,509.931 334.5,511.5C 331.5,511.5 328.5,511.5 325.5,511.5C 322.772,509.931 320.938,507.598 320,504.5C 319.852,492.485 320.352,480.485 321.5,468.5C 321.167,467.167 320.833,465.833 320.5,464.5C 267.117,485.981 213.783,485.814 160.5,464C 95.6315,432.774 56.7981,381.607 44,310.5C 35.661,239.337 57.4943,179.337 109.5,130.5C 97.4193,110.139 99.4193,91.3056 115.5,74C 120.119,70.7748 124.952,67.9414 130,65.5C 136.265,30.0731 156.765,8.07309 191.5,-0.5 Z M 194.5,20.5 C 209.725,18.3725 223.391,21.8725 235.5,31C 224.993,43.1962 221.493,57.0295 225,72.5C 231.704,78.1571 237.704,77.4905 243,70.5C 244.672,42.8145 259.172,30.3145 286.5,33C 309.727,42.6768 316.56,59.1768 307,82.5C 295.612,98.2958 280.778,102.796 262.5,96C 258.548,95.0885 254.881,95.7552 251.5,98C 234.012,124.496 210.345,132.162 180.5,121C 172.058,113.347 164.058,113.68 156.5,122C 144.695,129.244 134.528,127.411 126,116.5C 119.531,98.6129 125.698,87.7796 144.5,84C 146.624,82.8783 148.457,81.3783 150,79.5C 150.746,48.9526 165.579,29.2859 194.5,20.5 Z M 322.5,97.5 C 368.99,106.863 415.824,109.197 463,104.5C 470.706,104.868 475.373,108.868 477,116.5C 477.5,143.831 477.667,171.165 477.5,198.5C 470.999,197.233 464.499,197.233 458,198.5C 455.155,190.661 450.655,183.828 444.5,178C 435.838,172.621 426.505,171.121 416.5,173.5C 414.886,148.216 401.553,136.716 376.5,139C 361.536,144.064 353.703,154.564 353,170.5C 331.786,165.607 318.119,173.607 312,194.5C 311.833,214.842 311.333,235.175 310.5,255.5C 300.151,249.922 289.151,248.089 277.5,250C 273.835,251.668 271.668,254.501 271,258.5C 270.5,280.831 270.333,303.164 270.5,325.5C 264.537,326.53 258.537,326.697 252.5,326C 247.938,324.373 245.105,321.206 244,316.5C 243.333,256.5 243.333,196.5 244,136.5C 251.277,131.392 257.777,125.392 263.5,118.5C 287.74,123.978 307.407,116.978 322.5,97.5 Z M 167.5,139.5 C 176.548,142.902 185.882,145.402 195.5,147C 204.587,147.829 213.587,147.329 222.5,145.5C 222.5,150.833 222.5,156.167 222.5,161.5C 170.307,171.524 137.141,202.191 123,253.5C 119.535,268.834 119.201,284.168 122,299.5C 128,304.833 134,304.833 140,299.5C 138.507,275.634 143.174,252.967 154,231.5C 169.568,205.785 192.068,189.452 221.5,182.5C 222.024,229.534 222.858,276.534 224,323.5C 228.015,336.181 236.515,344.014 249.5,347C 256.624,347.372 263.624,347.538 270.5,347.5C 271.288,356.942 273.288,366.109 276.5,375C 242.034,387.256 210.034,382.589 180.5,361C 171.055,356.057 165.055,358.724 162.5,369C 162.796,370.888 163.296,372.722 164,374.5C 190.411,396.735 220.911,405.901 255.5,402C 265.883,400.958 275.883,398.458 285.5,394.5C 295.759,406.261 306.592,417.595 318,428.5C 320.059,431.949 321.559,435.616 322.5,439.5C 302.954,450.29 281.954,456.79 259.5,459C 176.966,462.834 116.799,428.334 79,355.5C 50.4807,285.299 60.1473,220.966 108,162.5C 113.864,156.301 120.031,150.468 126.5,145C 130.133,145.422 133.8,146.089 137.5,147C 148.693,148.734 158.693,146.234 167.5,139.5 Z"/></g>
<g><path style="opacity:0.943" fill="#e9ebf8" d="M 39.5,32.5 C 60.3343,30.4874 73.5009,39.4874 79,59.5C 79.7825,87.3586 66.2825,100.192 38.5,98C 22.2856,93.2784 13.6189,82.4451 12.5,65.5C 13.9203,48.0971 22.9203,37.0971 39.5,32.5 Z M 42.5,53.5 C 54.9979,53.4871 59.8313,59.4871 57,71.5C 53.1779,77.0408 48.0112,78.8741 41.5,77C 34.838,73.136 32.6713,67.636 35,60.5C 36.7424,57.2543 39.2424,54.921 42.5,53.5 Z"/></g>
<g><path style="opacity:0.883" fill="#e9ebf8" d="M 141.5,325.5 C 152.676,325.499 156.843,330.832 154,341.5C 149.261,347.082 143.761,347.915 137.5,344C 132.478,336.23 133.812,330.063 141.5,325.5 Z"/></g>
</svg>
