<?xml version="1.0" encoding="UTF-8"?>
<!DOCTYPE svg PUBLIC "-//W3C//DTD SVG 1.1//EN" "http://www.w3.org/Graphics/SVG/1.1/DTD/svg11.dtd">
<svg xmlns="http://www.w3.org/2000/svg" version="1.1" width="512px" height="512px" style="shape-rendering:geometricPrecision; text-rendering:geometricPrecision; image-rendering:optimizeQuality; fill-rule:evenodd; clip-rule:evenodd" xmlns:xlink="http://www.w3.org/1999/xlink">
<g><path style="opacity:0.949" fill="#e9ebf8" d="M 331.5,67.5 C 352.836,67.3334 374.169,67.5 395.5,68C 396.667,69.1667 397.833,70.3333 399,71.5C 399.5,80.8274 399.666,90.1607 399.5,99.5C 404.833,99.5 410.167,99.5 415.5,99.5C 415.5,105.167 415.5,110.833 415.5,116.5C 410.167,116.5 404.833,116.5 399.5,116.5C 399.881,125.568 399.381,134.568 398,143.5C 393.012,155.25 384.179,162.083 371.5,164C 359.167,164.333 346.833,164.667 334.5,165C 325.922,176.156 317.589,187.489 309.5,199C 320.092,202.864 330.759,206.531 341.5,210C 344.953,210.25 348.286,209.917 351.5,209C 353.546,214.31 355.88,219.476 358.5,224.5C 361.83,222.871 363.997,220.205 365,216.5C 372.866,206.649 383.032,202.482 395.5,204C 396.667,205.167 397.833,206.333 399,207.5C 399.667,226.167 399.667,244.833 399,263.5C 398.065,266.102 396.232,267.602 393.5,268C 388.5,268.333 383.5,268.667 378.5,269C 389.873,281.371 400.873,294.038 411.5,307C 456.55,308.267 484.383,330.767 495,374.5C 495.915,380.944 495.581,387.277 494,393.5C 492.829,394.893 491.329,395.727 489.5,396C 480.833,396.333 472.167,396.667 463.5,397C 454.779,425.702 435.446,438.368 405.5,435C 385.5,429.667 372.833,417 367.5,397C 308.833,396.333 250.167,396.333 191.5,397C 182.779,425.702 163.446,438.368 133.5,435C 113.5,429.667 100.833,417 95.5,397C 83.0966,396.94 70.7632,396.273 58.5,395C 57.2986,394.097 56.4652,392.931 56,391.5C 54.3438,363.464 63.8438,339.964 84.5,321C 104.289,304.432 126.289,291.432 150.5,282C 151.406,280.301 151.739,278.467 151.5,276.5C 106.167,276.5 60.8333,276.5 15.5,276.5C 15.5,270.833 15.5,265.167 15.5,259.5C 18.1667,259.5 20.8333,259.5 23.5,259.5C 23.3333,210.166 23.5,160.832 24,111.5C 25.1667,110.333 26.3333,109.167 27.5,108C 72.8333,107.333 118.167,107.333 163.5,108C 164.667,109.167 165.833,110.333 167,111.5C 167.5,166.166 167.667,220.832 167.5,275.5C 172.833,274.5 178.167,273.5 183.5,272.5C 183.333,253.497 183.5,234.497 184,215.5C 214.224,189.975 244.724,164.809 275.5,140C 292.83,139.5 310.163,139.333 327.5,139.5C 327.333,116.831 327.5,94.1642 328,71.5C 329.376,70.2949 330.542,68.9616 331.5,67.5 Z M 343.5,84.5 C 356.833,84.5 370.167,84.5 383.5,84.5C 383.5,89.5 383.5,94.5 383.5,99.5C 370.167,99.5 356.833,99.5 343.5,99.5C 343.5,94.5 343.5,89.5 343.5,84.5 Z M 343.5,116.5 C 356.833,116.5 370.167,116.5 383.5,116.5C 383.968,124.324 383.135,131.991 381,139.5C 378.313,143.194 374.813,145.694 370.5,147C 361.506,147.5 352.506,147.666 343.5,147.5C 343.5,137.167 343.5,126.833 343.5,116.5 Z M 39.5,124.5 C 76.8333,124.5 114.167,124.5 151.5,124.5C 151.5,169.5 151.5,214.5 151.5,259.5C 114.167,259.5 76.8333,259.5 39.5,259.5C 39.5,214.5 39.5,169.5 39.5,124.5 Z M 281.5,156.5 C 293.838,156.333 306.171,156.5 318.5,157C 308.333,171.167 298.167,185.333 288,199.5C 286.345,204.937 287.845,209.103 292.5,212C 308,217.167 323.5,222.333 339,227.5C 341.223,229.28 342.39,231.614 342.5,234.5C 313.483,232.577 284.483,230.41 255.5,228C 265.848,213.656 276.181,199.323 286.5,185C 282.345,181.194 277.845,177.694 273,174.5C 260.306,191.694 247.806,209.027 235.5,226.5C 223.518,227.499 211.518,227.832 199.5,227.5C 199.238,226.022 199.571,224.689 200.5,223.5C 227.835,201.491 254.835,179.158 281.5,156.5 Z M 90.5,180.5 C 107.116,179.458 116.449,187.125 118.5,203.5C 103.167,203.5 87.8333,203.5 72.5,203.5C 73.311,191.697 79.311,184.03 90.5,180.5 Z M 382.5,223.5 C 383.494,232.652 383.827,241.985 383.5,251.5C 377.833,251.5 372.167,251.5 366.5,251.5C 366.002,248.171 365.002,245.005 363.5,242C 366.339,240.08 369.339,238.413 372.5,237C 375.752,232.309 379.085,227.809 382.5,223.5 Z M 199.5,244.5 C 241.252,244.272 282.919,246.106 324.5,250C 310.475,286.405 296.642,322.905 283,359.5C 281.266,362.974 278.766,363.474 275.5,361C 274.978,360.439 274.645,359.772 274.5,359C 283.803,332.757 293.303,306.59 303,280.5C 304.494,275.474 303.327,271.308 299.5,268C 266.168,267.5 232.835,267.333 199.5,267.5C 199.5,259.833 199.5,252.167 199.5,244.5 Z M 341.5,251.5 C 344.167,251.5 346.833,251.5 349.5,251.5C 356.679,273.262 359.845,295.595 359,318.5C 358.662,323.547 357.995,328.547 357,333.5C 348.824,342.022 342.658,351.856 338.5,363C 325.838,363.5 313.171,363.667 300.5,363.5C 314.167,326.167 327.833,288.833 341.5,251.5 Z M 215.5,284.5 C 225.839,284.334 236.172,284.5 246.5,285C 232.137,301.472 227.97,320.306 234,341.5C 241.265,361.224 255.099,373.724 275.5,379C 260.837,379.5 246.17,379.667 231.5,379.5C 227.168,347.305 210.834,323.471 182.5,308C 173.25,303.77 163.583,300.937 153.5,299.5C 173.51,291.33 194.177,286.33 215.5,284.5 Z M 279.5,284.5 C 280.5,284.5 281.5,284.5 282.5,284.5C 274.973,306.579 267.14,328.579 259,350.5C 245.784,333.699 245.118,316.366 257,298.5C 263.415,291.885 270.915,287.218 279.5,284.5 Z M 375.5,292.5 C 381.154,298.157 386.487,304.157 391.5,310.5C 386.388,312.555 381.388,314.889 376.5,317.5C 375.502,309.193 375.169,300.86 375.5,292.5 Z M 133.5,316.5 C 169.334,314.207 194.834,329.207 210,361.5C 212.13,367.355 213.63,373.355 214.5,379.5C 206.826,379.666 199.159,379.5 191.5,379C 182.511,349.163 162.511,336.496 131.5,341C 111.973,346.527 99.973,359.194 95.5,379C 87.8333,379.667 80.1667,379.667 72.5,379C 77.3084,351.847 92.3084,332.514 117.5,321C 122.874,319.16 128.207,317.66 133.5,316.5 Z M 407.5,324.5 C 436.032,322.846 457.532,334.179 472,358.5C 475.278,365.168 477.445,372.168 478.5,379.5C 473.489,379.666 468.489,379.499 463.5,379C 454.511,349.163 434.511,336.496 403.5,341C 383.973,346.527 371.973,359.194 367.5,379C 362.5,379.667 357.5,379.667 352.5,379C 359.451,349.215 377.784,331.049 407.5,324.5 Z M 139.5,356.5 C 155.825,356.165 167.159,363.498 173.5,378.5C 153.5,379.833 133.5,379.833 113.5,378.5C 118.288,366.364 126.955,359.031 139.5,356.5 Z M 411.5,356.5 C 427.825,356.165 439.159,363.498 445.5,378.5C 425.5,379.833 405.5,379.833 385.5,378.5C 390.288,366.364 398.955,359.031 411.5,356.5 Z M 113.5,396.5 C 133.511,396.167 153.511,396.5 173.5,397.5C 164.271,416.615 149.604,422.782 129.5,416C 121.405,411.741 116.071,405.241 113.5,396.5 Z M 385.5,396.5 C 405.511,396.167 425.511,396.5 445.5,397.5C 436.271,416.615 421.604,422.782 401.5,416C 393.405,411.741 388.071,405.241 385.5,396.5 Z"/></g>
<g><path style="opacity:0.941" fill="#e9ebf8" d="M 87.5,155.5 C 92.8333,155.5 98.1667,155.5 103.5,155.5C 103.5,158.5 103.5,161.5 103.5,164.5C 120.324,167.823 130.824,177.823 135,194.5C 135.5,203.16 135.666,211.827 135.5,220.5C 108.833,220.5 82.1667,220.5 55.5,220.5C 55.3336,211.827 55.5002,203.16 56,194.5C 60.1763,177.823 70.6763,167.823 87.5,164.5C 87.5,161.5 87.5,158.5 87.5,155.5 Z M 90.5,180.5 C 79.311,184.03 73.311,191.697 72.5,203.5C 87.8333,203.5 103.167,203.5 118.5,203.5C 116.449,187.125 107.116,179.458 90.5,180.5 Z"/></g>
</svg>
