<?xml version="1.0" encoding="UTF-8"?>
<!DOCTYPE svg PUBLIC "-//W3C//DTD SVG 1.1//EN" "http://www.w3.org/Graphics/SVG/1.1/DTD/svg11.dtd">
<svg xmlns="http://www.w3.org/2000/svg" version="1.1" width="512px" height="512px" style="shape-rendering:geometricPrecision; text-rendering:geometricPrecision; image-rendering:optimizeQuality; fill-rule:evenodd; clip-rule:evenodd" xmlns:xlink="http://www.w3.org/1999/xlink">
<g><path style="opacity:0.956" fill="#e9ebf8" d="M 184.5,103.5 C 204.082,101.255 221.749,105.922 237.5,117.5C 254.829,111.411 269.663,115.077 282,128.5C 284.973,133.107 286.807,138.107 287.5,143.5C 336.834,143.333 386.168,143.5 435.5,144C 430.666,157.002 426.333,170.168 422.5,183.5C 395.5,183.5 368.5,183.5 341.5,183.5C 328.643,226.239 315.476,268.906 302,311.5C 300.769,312.108 299.436,312.441 298,312.5C 231.16,304.041 164.326,295.541 97.5,287C 82.0733,247.556 66.74,208.056 51.5,168.5C 68.8205,167.5 86.1539,167.167 103.5,167.5C 109.015,142.822 124.349,128.655 149.5,125C 158.385,113.228 170.052,106.061 184.5,103.5 Z M 185.5,120.5 C 205.253,118.217 221.587,124.55 234.5,139.5C 239.762,135.203 245.762,132.536 252.5,131.5C 258.072,131.854 262.906,133.854 267,137.5C 268.559,139.217 269.392,141.217 269.5,143.5C 267.61,143.297 266.11,143.963 265,145.5C 260.538,152.926 255.705,160.092 250.5,167C 207.501,167.5 164.501,167.667 121.5,167.5C 123.794,156.365 130.294,148.698 141,144.5C 140.047,150.38 139.547,156.38 139.5,162.5C 145.167,162.5 150.833,162.5 156.5,162.5C 155.839,141.101 165.505,127.101 185.5,120.5 Z M 276.5,159.5 C 321.505,159.167 366.505,159.5 411.5,160.5C 410.423,162.729 409.756,165.063 409.5,167.5C 382.5,167.5 355.5,167.5 328.5,167.5C 317.434,205.439 305.6,243.105 293,280.5C 284.258,259.021 276.091,237.355 268.5,215.5C 274.833,215.5 281.167,215.5 287.5,215.5C 287.5,210.167 287.5,204.833 287.5,199.5C 272.818,199.167 258.152,199.501 243.5,200.5C 255.57,231.046 267.236,261.713 278.5,292.5C 262.769,290.909 247.102,288.909 231.5,286.5C 221.903,263.041 212.903,239.375 204.5,215.5C 210.833,215.5 217.167,215.5 223.5,215.5C 223.5,210.167 223.5,204.833 223.5,199.5C 208.818,199.167 194.152,199.501 179.5,200.5C 190.167,228.167 200.833,255.833 211.5,283.5C 211,283.833 210.5,284.167 210,284.5C 194.538,282.213 179.038,280.213 163.5,278.5C 155.637,257.577 147.97,236.577 140.5,215.5C 146.833,215.5 153.167,215.5 159.5,215.5C 159.5,210.167 159.5,204.833 159.5,199.5C 144.818,199.167 130.152,199.501 115.5,200.5C 125.269,225.311 134.936,250.144 144.5,275C 133.802,274.664 123.136,273.664 112.5,272C 110.01,271.505 108.51,270.005 108,267.5C 97.1948,239.581 86.6948,211.581 76.5,183.5C 137.834,183.667 199.168,183.5 260.5,183C 265.967,175.225 271.3,167.391 276.5,159.5 Z"/></g>
<g><path style="opacity:0.952" fill="#e9ebf8" d="M 344.5,191.5 C 370.5,191.5 396.5,191.5 422.5,191.5C 427.507,209.859 432.674,228.192 438,246.5C 443.741,247.475 449.575,247.808 455.5,247.5C 455.5,287.167 455.5,326.833 455.5,366.5C 447.5,368.833 439.5,371.167 431.5,373.5C 430.426,413.41 410.426,437.91 371.5,447C 334.446,450.729 307.946,435.896 292,402.5C 289.711,396.343 288.211,390.009 287.5,383.5C 271.5,383.5 255.5,383.5 239.5,383.5C 233.738,418.096 213.738,439.262 179.5,447C 142.446,450.729 115.946,435.896 100,402.5C 88.4774,366.071 97.9774,336.571 128.5,314C 153.662,300.37 178.996,300.036 204.5,313C 207.672,314.752 210.672,316.752 213.5,319C 244.165,319.5 274.832,319.667 305.5,319.5C 318.5,276.833 331.5,234.167 344.5,191.5 Z M 357.5,207.5 C 363.5,207.5 369.5,207.5 375.5,207.5C 375.5,226.167 375.5,244.833 375.5,263.5C 396.833,263.5 418.167,263.5 439.5,263.5C 439.5,293.5 439.5,323.5 439.5,353.5C 436.171,353.998 433.005,354.998 430,356.5C 416.04,317.895 388.54,300.395 347.5,304C 339.828,305.113 332.661,307.613 326,311.5C 336.37,276.883 346.87,242.217 357.5,207.5 Z M 391.5,207.5 C 397.425,207.192 403.259,207.525 409,208.5C 412.606,221.43 416.44,234.264 420.5,247C 410.839,247.5 401.172,247.666 391.5,247.5C 391.5,234.167 391.5,220.833 391.5,207.5 Z M 167.5,319.5 C 201.349,323.016 219.683,341.682 222.5,375.5C 221.79,398.698 211.123,415.531 190.5,426C 158.347,436.826 133.847,427.659 117,398.5C 106.174,366.347 115.341,341.847 144.5,325C 152.008,321.937 159.674,320.103 167.5,319.5 Z M 359.5,319.5 C 393.349,323.016 411.683,341.682 414.5,375.5C 413.79,398.698 403.123,415.531 382.5,426C 350.347,436.826 325.847,427.659 309,398.5C 298.174,366.347 307.341,341.847 336.5,325C 344.008,321.937 351.674,320.103 359.5,319.5 Z M 228.5,336.5 C 251.663,335.337 274.996,335.17 298.5,336C 292.344,345.633 288.678,356.133 287.5,367.5C 271.5,367.5 255.5,367.5 239.5,367.5C 238.393,356.173 234.726,345.84 228.5,336.5 Z M 163.5,358.5 C 173.823,357.408 180.656,361.741 184,371.5C 185.583,381.834 181.416,388.667 171.5,392C 161.166,393.583 154.333,389.416 151,379.5C 149.579,369.104 153.745,362.104 163.5,358.5 Z M 355.5,358.5 C 365.823,357.408 372.656,361.741 376,371.5C 377.583,381.834 373.416,388.667 363.5,392C 353.166,393.583 346.333,389.416 343,379.5C 341.579,369.104 345.745,362.104 355.5,358.5 Z"/></g>
<g><path style="opacity:0.929" fill="#e9ebf8" d="M 160.5,341.5 C 188.642,340.808 202.142,354.475 201,382.5C 194.855,402.493 181.355,411.327 160.5,409C 140.522,402.893 131.688,389.393 134,368.5C 137.682,354.319 146.515,345.319 160.5,341.5 Z M 163.5,358.5 C 153.745,362.104 149.579,369.104 151,379.5C 154.333,389.416 161.166,393.583 171.5,392C 181.416,388.667 185.583,381.834 184,371.5C 180.656,361.741 173.823,357.408 163.5,358.5 Z"/></g>
<g><path style="opacity:0.929" fill="#e9ebf8" d="M 352.5,341.5 C 380.642,340.808 394.142,354.475 393,382.5C 386.855,402.493 373.355,411.327 352.5,409C 332.522,402.893 323.688,389.393 326,368.5C 329.682,354.319 338.515,345.319 352.5,341.5 Z M 355.5,358.5 C 345.745,362.104 341.579,369.104 343,379.5C 346.333,389.416 353.166,393.583 363.5,392C 373.416,388.667 377.583,381.834 376,371.5C 372.656,361.741 365.823,357.408 355.5,358.5 Z"/></g>
</svg>
