<?xml version="1.0" standalone="no"?>
<!DOCTYPE svg PUBLIC "-//W3C//DTD SVG 20010904//EN"
 "http://www.w3.org/TR/2001/REC-SVG-20010904/DTD/svg10.dtd">
<svg version="1.0" xmlns="http://www.w3.org/2000/svg"
 width="170.000000pt" height="170.000000pt" viewBox="0 0 170.000000 170.000000"
 preserveAspectRatio="xMidYMid meet">
<metadata>
Created by potrace 1.10, written by Peter Selinger 2001-2011
</metadata>
<g transform="translate(0.000000,170.000000) scale(0.100000,-0.100000)"
fill="#000000" stroke="none">
<path d="M755 1246 c-206 -50 -344 -259 -306 -463 41 -222 253 -374 467 -334
174 32 303 161 335 334 52 281 -216 531 -496 463z m230 -67 c41 -15 74 -38
115 -79 75 -75 103 -144 103 -250 0 -107 -29 -178 -104 -251 -74 -74 -144
-102 -249 -102 -106 0 -175 28 -250 103 -75 75 -103 144 -103 250 0 257 243
421 488 329z"/>
<path d="M836 1064 c-9 -8 -16 -22 -16 -29 0 -7 7 -21 16 -29 30 -30 74 -13
74 29 0 42 -44 59 -74 29z"/>
<path d="M833 937 c-62 -21 -81 -37 -43 -37 24 0 24 -4 5 -138 -16 -114 -11
-142 29 -142 29 0 72 33 91 70 18 34 18 40 5 40 -5 0 -10 -6 -10 -13 0 -8 -9
-22 -20 -32 -19 -18 -20 -17 -20 6 0 14 7 78 16 143 8 65 14 119 12 121 -2 1
-31 -7 -65 -18z"/>
</g>
</svg>
