<?xml version="1.0" encoding="UTF-8"?>
<!DOCTYPE svg PUBLIC "-//W3C//DTD SVG 1.1//EN" "http://www.w3.org/Graphics/SVG/1.1/DTD/svg11.dtd">
<svg xmlns="http://www.w3.org/2000/svg" version="1.1" width="512px" height="512px" style="shape-rendering:geometricPrecision; text-rendering:geometricPrecision; image-rendering:optimizeQuality; fill-rule:evenodd; clip-rule:evenodd" xmlns:xlink="http://www.w3.org/1999/xlink">
<g><path style="opacity:0.935" fill="#000000" d="M 209.5,-0.5 C 223.5,-0.5 237.5,-0.5 251.5,-0.5C 264.662,3.95171 272.329,13.1184 274.5,27C 305.671,37.1722 324.505,58.3389 331,90.5C 332.097,105.812 332.764,121.145 333,136.5C 351.981,144.8 358.148,158.8 351.5,178.5C 362.751,191.09 363.251,204.09 353,217.5C 347.725,222.221 341.558,224.887 334.5,225.5C 330.729,261.401 313.562,288.734 283,307.5C 283.124,313.642 286.291,317.475 292.5,319C 318.87,327.735 345.204,336.568 371.5,345.5C 374.315,330.03 381.649,317.197 393.5,307C 400.824,303.752 406.324,305.586 410,312.5C 410.5,321.827 410.666,331.161 410.5,340.5C 417.167,340.5 423.833,340.5 430.5,340.5C 430.334,331.161 430.5,321.827 431,312.5C 435.248,305.15 441.081,303.65 448.5,308C 466.879,324.477 472.713,344.644 466,368.5C 462.337,379.156 456.004,387.823 447,394.5C 446.168,402.521 446.335,410.521 447.5,418.5C 457.354,422.854 463.854,430.188 467,440.5C 468.597,454.778 468.93,469.111 468,483.5C 464.079,497.585 455.246,506.918 441.5,511.5C 422.833,511.5 404.167,511.5 385.5,511.5C 379.093,508.922 374.926,504.255 373,497.5C 372.333,474.833 372.333,452.167 373,429.5C 376.748,419.703 383.914,415.036 394.5,415.5C 394.83,408.468 394.497,401.468 393.5,394.5C 385.993,388.481 380.16,381.148 376,372.5C 368.627,380.204 361.627,388.204 355,396.5C 352.163,401.172 350.163,406.172 349,411.5C 348.667,443.167 348.333,474.833 348,506.5C 347.003,508.323 345.836,509.99 344.5,511.5C 341.833,511.5 339.167,511.5 336.5,511.5C 334.856,510.684 333.69,509.35 333,507.5C 332.5,498.84 332.334,490.173 332.5,481.5C 301.167,481.5 269.833,481.5 238.5,481.5C 238.666,490.173 238.5,498.84 238,507.5C 237.31,509.35 236.144,510.684 234.5,511.5C 231.833,511.5 229.167,511.5 226.5,511.5C 224.73,509.887 223.564,507.887 223,505.5C 222.5,497.507 222.334,489.507 222.5,481.5C 191.5,481.5 160.5,481.5 129.5,481.5C 129.666,489.84 129.5,498.173 129,506.5C 128.003,508.323 126.836,509.99 125.5,511.5C 122.833,511.5 120.167,511.5 117.5,511.5C 116.542,510.038 115.376,508.705 114,507.5C 113.964,474.461 113.298,441.461 112,408.5C 109.873,402.372 106.873,396.706 103,391.5C 95.6667,383.5 88.3333,375.5 81,367.5C 68.8291,375.677 61.4957,387.01 59,401.5C 58.6667,436.5 58.3333,471.5 58,506.5C 57.0027,508.323 55.8361,509.99 54.5,511.5C 51.8333,511.5 49.1667,511.5 46.5,511.5C 44.8564,510.684 43.6897,509.35 43,507.5C 42.3333,471.5 42.3333,435.5 43,399.5C 47.6632,374.183 61.8298,356.683 85.5,347C 114.241,337.531 142.907,327.864 171.5,318C 175.92,316.579 178.587,313.579 179.5,309C 165.109,299.611 152.943,287.778 143,273.5C 133.53,258.893 128.364,242.893 127.5,225.5C 111.598,223.765 102.931,214.931 101.5,199C 101.515,190.971 104.515,184.305 110.5,179C 103.354,159.274 109.354,145.107 128.5,136.5C 129.333,123.179 129.833,109.846 130,96.5C 134.717,61.2845 153.883,37.9512 187.5,26.5C 189.767,13.2452 197.1,4.24516 209.5,-0.5 Z M 217.5,14.5 C 226.506,14.3336 235.506,14.5002 244.5,15C 249.612,15.6333 253.445,18.1333 256,22.5C 257.292,45.45 257.959,68.45 258,91.5C 264.006,97.3301 269.006,96.6635 273,89.5C 273.333,74.1667 273.667,58.8333 274,43.5C 296.362,52.5569 310.029,68.8903 315,92.5C 316.297,106.802 316.797,121.135 316.5,135.5C 300.83,135.333 285.163,135.5 269.5,136C 264.776,138.435 263.276,142.269 265,147.5C 266.214,149.049 267.714,150.215 269.5,151C 289.898,151.035 310.231,151.702 330.5,153C 340.745,160.846 341.079,169.179 331.5,178C 329.913,178.862 328.246,179.529 326.5,180C 262.833,180.667 199.167,180.667 135.5,180C 126.35,177.176 122.516,171.009 124,161.5C 125.927,156.572 129.427,153.406 134.5,152C 169.833,151.667 205.167,151.333 240.5,151C 247.15,145.956 247.15,140.956 240.5,136C 208.835,135.5 177.168,135.333 145.5,135.5C 145.333,122.829 145.5,110.162 146,97.5C 149.474,71.5562 163.308,53.5562 187.5,43.5C 188.333,59.156 188.833,74.8227 189,90.5C 192.892,96.2591 197.559,96.9258 203,92.5C 204.313,69.9215 204.979,47.2548 205,24.5C 207.328,18.6531 211.495,15.3197 217.5,14.5 Z M 120.5,191.5 C 122.315,192.63 124.315,193.296 126.5,193.5C 126.666,198.844 126.499,204.177 126,209.5C 117.38,205.479 115.547,199.479 120.5,191.5 Z M 339.5,191.5 C 342.346,192.813 344.013,195.147 344.5,198.5C 343.578,203.692 340.745,207.359 336,209.5C 335.171,204.136 335.337,198.802 336.5,193.5C 337.739,193.058 338.739,192.391 339.5,191.5 Z M 142.5,196.5 C 201.5,196.5 260.5,196.5 319.5,196.5C 322.512,224.123 316.012,249.123 300,271.5C 271.529,303.576 237.029,312.41 196.5,298C 165.122,283.43 147.289,258.93 143,224.5C 142.5,215.173 142.334,205.839 142.5,196.5 Z M 194.5,314.5 C 213.069,320.62 232.069,322.12 251.5,319C 256.655,317.962 261.655,316.462 266.5,314.5C 269.708,323.041 275.374,329.374 283.5,333.5C 251.297,356.986 217.964,358.486 183.5,338C 181.208,336.71 179.208,335.043 177.5,333C 186.484,329.85 192.151,323.683 194.5,314.5 Z M 393.5,330.5 C 394.136,336.398 394.969,342.398 396,348.5C 397.892,352.058 400.725,354.558 404.5,356C 415.167,356.667 425.833,356.667 436.5,356C 441.4,354.098 444.567,350.598 446,345.5C 445.211,326.877 447.211,326.21 452,343.5C 453.715,355.308 451.048,365.974 444,375.5C 439.81,378.934 435.81,382.6 432,386.5C 430.58,396.086 430.08,405.753 430.5,415.5C 423.833,415.5 417.167,415.5 410.5,415.5C 410.666,406.827 410.5,398.16 410,389.5C 409.333,388.167 408.667,386.833 408,385.5C 388.317,371.102 383.484,352.769 393.5,330.5 Z M 178.5,354.5 C 213.196,373.126 247.862,373.126 282.5,354.5C 270.908,383.595 253.908,409.095 231.5,431C 230.833,431.667 230.167,431.667 229.5,431C 219.797,420.965 210.463,410.632 201.5,400C 190.59,398.978 187.424,403.478 192,413.5C 200.892,425.398 210.892,436.398 222,446.5C 222.5,452.825 222.666,459.158 222.5,465.5C 191.5,465.5 160.5,465.5 129.5,465.5C 129.667,447.83 129.5,430.164 129,412.5C 127.627,402.757 124.293,393.757 119,385.5C 111.833,377.167 104.667,368.833 97.5,360.5C 116.749,353.639 136.082,346.972 155.5,340.5C 160.248,354.901 166.082,368.901 173,382.5C 179.948,387.285 184.781,385.618 187.5,377.5C 184.206,369.918 181.206,362.251 178.5,354.5 Z M 305.5,340.5 C 325.301,346.767 344.968,353.434 364.5,360.5C 356.813,369.019 349.313,377.686 342,386.5C 337.33,393.846 334.33,401.846 333,410.5C 332.5,428.83 332.333,447.164 332.5,465.5C 301.167,465.5 269.833,465.5 238.5,465.5C 238.334,459.158 238.5,452.825 239,446.5C 270.022,416.803 292.189,381.47 305.5,340.5 Z M 390.5,431.5 C 405.837,431.333 421.17,431.5 436.5,432C 444.591,433.759 449.758,438.592 452,446.5C 452.667,457.833 452.667,469.167 452,480.5C 449.163,489.672 442.996,494.839 433.5,496C 419.833,496.667 406.167,496.667 392.5,496C 391.234,495.691 390.067,495.191 389,494.5C 388.333,474.167 388.333,453.833 389,433.5C 389.717,432.956 390.217,432.289 390.5,431.5 Z"/></g>
<g><path style="opacity:0.906" fill="#000000" d="M 184.5,203.5 C 188.426,203.047 191.592,204.38 194,207.5C 194.667,215.5 194.667,223.5 194,231.5C 186.954,237.656 181.954,236.322 179,227.5C 178.171,220.766 178.504,214.099 180,207.5C 181.397,205.93 182.897,204.596 184.5,203.5 Z"/></g>
<g><path style="opacity:0.898" fill="#000000" d="M 272.5,203.5 C 276.888,202.943 280.055,204.61 282,208.5C 282.667,215.833 282.667,223.167 282,230.5C 276.58,237.401 271.58,237.067 267,229.5C 266.333,222.833 266.333,216.167 267,209.5C 268.021,206.65 269.854,204.65 272.5,203.5 Z"/></g>
<g><path style="opacity:0.905" fill="#000000" d="M 216.5,264.5 C 221.271,266.3 226.105,267.967 231,269.5C 235.652,268.258 240.152,266.592 244.5,264.5C 253.255,267.78 254.589,272.947 248.5,280C 237.333,286.814 226,287.148 214.5,281C 209.391,277.634 208.224,273.134 211,267.5C 212.876,266.391 214.709,265.391 216.5,264.5 Z"/></g>
</svg>
