<?xml version="1.0" standalone="no"?>
<!DOCTYPE svg PUBLIC "-//W3C//DTD SVG 20010904//EN"
 "http://www.w3.org/TR/2001/REC-SVG-20010904/DTD/svg10.dtd">
<svg version="1.0" xmlns="http://www.w3.org/2000/svg"
 width="512.000000pt" height="512.000000pt" viewBox="0 0 512.000000 512.000000"
 preserveAspectRatio="xMidYMid meet">

<g transform="translate(0.000000,512.000000) scale(0.100000,-0.100000)"
fill="#e9ebf8" stroke="none">
<path d="M2470 4350 l0 -400 90 0 90 0 0 400 0 400 -90 0 -90 0 0 -400z"/>
<path d="M2277 4585 c-238 -99 -430 -351 -449 -590 l-3 -40 268 -3 267 -2 0
330 c0 258 -3 330 -12 330 -7 -1 -39 -12 -71 -25z"/>
<path d="M2760 4280 l0 -330 268 2 267 3 -3 35 c-17 193 -150 411 -320 524
-62 41 -178 96 -202 96 -7 0 -10 -110 -10 -330z"/>
<path d="M1982 3643 c4 -193 6 -213 31 -282 67 -189 224 -332 413 -377 91 -21
236 -15 318 15 143 51 262 155 327 286 55 113 69 187 69 393 l0 172 -581 0
-581 0 4 -207z"/>
<path d="M2192 2873 l3 -96 165 -119 c91 -66 174 -124 186 -130 18 -8 46 8
200 119 l179 130 3 96 3 97 -68 -34 c-189 -95 -420 -95 -607 -1 l-67 33 3 -95z"/>
<path d="M2073 2678 l-33 -11 0 -308 0 -309 235 0 235 0 -2 187 -3 188 -185
132 c-101 73 -191 133 -200 132 -8 -1 -30 -6 -47 -11z"/>
<path d="M2800 2557 l-185 -133 -3 -187 -2 -187 220 0 220 0 0 314 0 314 -22
6 c-13 3 -28 6 -33 6 -6 0 -94 -60 -195 -133z"/>
<path d="M3160 2345 l0 -294 90 -3 90 -3 0 267 0 266 -90 30 -90 31 0 -294z"/>
<path d="M1838 2598 l-88 -30 0 -261 0 -262 90 3 90 3 0 290 c0 159 -1 289 -2
288 -2 0 -42 -14 -90 -31z"/>
<path d="M1476 2480 c-99 -33 -204 -74 -234 -92 -70 -43 -155 -134 -192 -209
-54 -106 -60 -148 -60 -431 0 -254 0 -257 22 -272 19 -14 69 -16 340 -16 l318
0 0 540 c0 297 -3 540 -7 540 -5 -1 -89 -28 -187 -60z"/>
<path d="M3450 2000 l0 -540 318 0 c271 0 321 2 340 16 22 15 22 18 22 272 0
196 -4 272 -15 315 -33 129 -118 247 -228 318 -38 25 -121 59 -240 98 -100 34
-185 61 -190 61 -4 0 -7 -243 -7 -540z"/>
<path d="M1762 1928 c-17 -17 -17 -1529 0 -1546 17 -17 1549 -17 1566 0 17 17
17 1529 0 1546 -8 8 -58 12 -160 12 l-148 0 -2 -392 -3 -393 -27 -9 c-22 -8
-33 -5 -64 20 -88 70 -73 68 -133 18 -58 -48 -79 -53 -104 -26 -15 17 -17 59
-17 400 l0 382 -125 0 -125 0 0 -383 c0 -359 -1 -385 -18 -400 -28 -26 -45
-21 -105 28 l-56 45 -52 -45 c-55 -47 -68 -52 -100 -35 -18 10 -19 25 -19 400
l0 390 -148 0 c-102 0 -152 -4 -160 -12z m362 -964 c24 -23 24 -395 0 -419
-13 -13 -36 -15 -127 -13 -107 3 -112 4 -124 28 -19 36 -14 380 6 403 19 24
222 25 245 1z m177 6 c18 -10 19 -23 19 -213 0 -217 -2 -227 -50 -227 -48 0
-50 10 -50 221 0 166 2 200 16 213 18 19 38 20 65 6z m193 -12 c13 -18 16 -56
16 -203 0 -197 -7 -225 -55 -225 -51 0 -55 16 -55 222 0 164 2 194 17 210 22
25 59 23 77 -4z m178 5 c16 -14 18 -35 18 -209 0 -209 -4 -224 -55 -224 -48 0
-55 28 -55 225 0 147 3 185 16 203 18 26 50 28 76 5z m182 1 c14 -13 16 -47
16 -213 0 -211 -2 -221 -50 -221 -48 0 -50 10 -50 227 0 182 2 203 18 212 25
15 48 13 66 -5z m363 -14 c9 -17 13 -78 13 -195 0 -229 5 -219 -137 -223 -91
-2 -114 0 -127 13 -14 14 -16 46 -16 207 0 242 -8 230 144 226 107 -3 111 -4
123 -28z"/>
<path d="M1970 755 l0 -126 33 3 32 3 0 120 0 120 -32 3 -33 3 0 -126z"/>
<path d="M3054 867 c-2 -7 -3 -62 -2 -123 l3 -109 33 -3 32 -3 0 125 0 126
-30 0 c-17 0 -33 -6 -36 -13z"/>
<path d="M2170 1623 l0 -316 23 21 c24 23 71 30 82 12 3 -5 15 -15 26 -20 19
-11 19 -5 19 305 l0 315 -75 0 -75 0 0 -317z"/>
<path d="M2770 1630 c0 -170 4 -310 8 -310 5 0 17 7 28 15 27 20 51 19 85 -6
l29 -20 0 315 0 316 -75 0 -75 0 0 -310z"/>
</g>
</svg>
