<?xml version="1.0" standalone="no"?>
<!DOCTYPE svg PUBLIC "-//W3C//DTD SVG 20010904//EN"
 "http://www.w3.org/TR/2001/REC-SVG-20010904/DTD/svg10.dtd">
<svg version="1.0" xmlns="http://www.w3.org/2000/svg"
 width="512.000000pt" height="512.000000pt" viewBox="0 0 512.000000 512.000000"
 preserveAspectRatio="xMidYMid meet">

<g transform="translate(0.000000,512.000000) scale(0.100000,-0.100000)"
fill="#e9ebf8" stroke="none">
<path d="M818 5109 c-213 -50 -384 -280 -461 -619 -22 -94 -22 -102 -22 -1175
l0 -1080 26 -56 c51 -108 152 -180 269 -194 51 -5 80 0 177 30 21 7 22 6 25
-142 3 -133 5 -153 27 -198 55 -111 157 -177 281 -183 172 -8 308 101 339 272
6 33 11 176 11 323 0 145 2 263 5 263 3 0 22 -7 43 -17 23 -10 64 -16 112 -16
129 -1 238 65 296 180 l29 58 3 372 3 373 1152 2 c1148 3 1152 3 1208 24 92
35 187 110 251 198 l28 39 0 -121 c0 -98 -4 -132 -21 -177 -25 -68 -99 -147
-166 -178 -48 -22 -52 -22 -793 -28 -813 -6 -788 -4 -901 -65 -112 -62 -192
-157 -234 -281 l-22 -68 -54 -3 c-107 -5 -119 -27 -119 -208 l0 -124 -55 0
c-46 0 -60 -4 -80 -25 l-25 -24 0 -1104 c0 -1073 1 -1105 19 -1128 l19 -24
372 0 372 0 19 24 c18 23 19 55 19 1128 l0 1104 -25 24 c-20 21 -34 25 -80 25
l-55 0 0 124 c0 175 -15 205 -102 206 -55 0 -57 5 -29 67 26 57 92 120 160
152 l56 26 750 5 c737 5 751 6 807 27 166 63 280 190 323 361 14 55 16 132 12
595 -3 496 -5 538 -25 622 -68 295 -199 497 -378 582 l-79 38 -1725 2 c-980 0
-1741 -3 -1762 -8z m188 -178 c105 -48 201 -180 258 -357 101 -313 58 -705
-104 -944 -48 -70 -88 -106 -159 -138 -139 -64 -287 17 -388 215 -78 152 -113
306 -113 502 0 278 73 500 214 650 80 85 199 114 292 72z m3309 -5 c179 -85
305 -381 305 -717 0 -318 -118 -606 -289 -707 l-46 -27 -1519 -3 -1519 -2 17
22 c172 240 247 529 218 846 -18 202 -73 364 -179 530 l-53 82 1508 0 1507 0
50 -24z m-3713 -1484 c61 -59 110 -90 177 -116 54 -20 74 -21 549 -24 l493 -3
-3 -352 c-3 -350 -3 -352 -27 -390 -45 -73 -154 -100 -222 -54 -18 12 -44 38
-56 56 -21 32 -23 45 -23 182 l0 149 -85 0 -85 0 0 -555 c0 -533 -1 -557 -20
-594 -47 -94 -168 -117 -247 -48 -62 55 -63 59 -63 442 l0 345 -79 0 -78 0 -5
-108 c-5 -126 -21 -163 -86 -200 -79 -44 -178 -18 -221 58 -21 37 -21 44 -21
685 l0 648 28 -39 c16 -21 49 -58 74 -82z m2038 -1047 l0 -85 -80 0 -80 0 0
85 0 85 80 0 80 0 0 -85z m170 -1235 l0 -990 -250 0 -250 0 0 990 0 990 250 0
250 0 0 -990z"/>
<path d="M819 4597 c-112 -75 -176 -272 -152 -464 20 -158 78 -267 163 -310
167 -85 320 96 322 382 1 250 -98 415 -250 415 -34 0 -59 -7 -83 -23z m120
-170 c66 -107 66 -336 -1 -429 -25 -36 -44 -35 -64 3 -62 121 -58 339 8 432
25 35 32 34 57 -6z"/>
<path d="M2480 415 l0 -85 80 0 80 0 0 85 0 85 -80 0 -80 0 0 -85z"/>
</g>
</svg>
