<?xml version="1.0" standalone="no"?>
<!DOCTYPE svg PUBLIC "-//W3C//DTD SVG 20010904//EN"
 "http://www.w3.org/TR/2001/REC-SVG-20010904/DTD/svg10.dtd">
<svg version="1.0" xmlns="http://www.w3.org/2000/svg"
 width="512.000000pt" height="512.000000pt" viewBox="0 0 512.000000 512.000000"
 preserveAspectRatio="xMidYMid meet">

<g transform="translate(0.000000,512.000000) scale(0.100000,-0.100000)"
fill="#e9ebf8" stroke="none">
<path d="M3680 4945 c-36 -8 -103 -33 -150 -56 -69 -34 -102 -59 -172 -130
-49 -48 -88 -94 -88 -101 0 -11 110 -88 125 -88 3 0 16 12 29 26 l22 26 44
-53 c24 -30 88 -99 141 -154 l98 -100 -53 0 c-167 0 -213 -227 -60 -300 50
-23 113 -16 160 20 48 37 68 86 60 149 l-5 49 22 -20 c12 -12 52 -43 89 -70
l66 -50 -96 -47 -97 -48 -297 -37 -298 -37 -55 35 c-30 20 -55 38 -55 41 0 3
34 27 76 54 42 28 80 59 85 70 8 20 69 287 69 304 0 11 -136 46 -148 38 -5 -3
-13 -23 -17 -43 -4 -21 -16 -78 -27 -126 l-20 -88 -119 -80 c-123 -82 -138
-101 -125 -154 5 -18 39 -47 121 -102 l115 -76 0 -195 c0 -233 6 -258 75 -327
65 -66 99 -75 269 -75 l136 0 0 -186 0 -186 -255 -319 c-140 -176 -266 -342
-281 -370 -31 -61 -54 -163 -54 -239 0 -115 45 -255 106 -336 l33 -42 -18 -47
-18 -47 -73 179 c-41 98 -102 245 -136 328 -62 149 -62 150 -43 174 10 13 19
33 19 45 0 37 -370 989 -399 1025 -35 45 -68 69 -117 86 l-39 13 -7 92 c-11
166 -91 285 -236 353 l-67 32 -298 3 c-325 4 -339 2 -353 -53 l-6 -25 -135 0
c-129 0 -135 -1 -158 -25 -25 -24 -25 -26 -25 -215 0 -189 0 -191 25 -215 19
-19 35 -25 70 -25 l46 0 -19 -27 c-62 -90 -54 -203 20 -288 21 -24 56 -52 78
-61 34 -15 37 -20 29 -41 -14 -37 -11 -408 3 -457 8 -24 32 -61 60 -90 l47
-49 -19 -45 c-17 -37 -20 -67 -20 -178 l0 -134 80 0 80 0 0 119 c0 98 4 127
20 165 l21 46 156 0 c176 0 216 8 273 57 l40 34 11 -28 c6 -15 35 -93 65 -172
l54 -144 0 -273 0 -274 -320 0 -320 0 0 150 0 150 -80 0 -80 0 0 -205 c0 -205
0 -206 25 -230 l24 -25 429 0 c408 0 431 1 453 19 24 19 24 21 29 271 l5 253
134 -354 c165 -436 183 -472 280 -569 182 -181 438 -228 684 -125 16 7 17 -8
17 -239 l0 -247 25 -24 24 -25 591 0 591 0 24 25 25 24 0 451 0 450 -80 0 -80
0 0 -395 0 -395 -200 0 -200 0 0 840 0 840 200 0 200 0 0 -345 0 -345 80 0 81
0 -3 648 -3 647 -28 60 c-34 72 -95 138 -159 171 l-48 24 0 91 c0 72 3 89 13
82 6 -5 30 -24 52 -41 81 -63 223 -112 327 -112 28 0 46 7 64 25 l25 25 -3
672 -3 673 -26 66 c-37 96 -70 148 -135 213 -103 103 -220 154 -372 163 l-93
6 -54 52 c-115 113 -263 175 -430 181 -65 2 -123 -1 -165 -11z m242 -156 c181
-38 339 -194 383 -380 8 -35 15 -111 15 -168 0 -103 0 -103 -22 -97 -13 4 -41
10 -63 13 -103 15 -461 312 -619 513 l-48 60 55 26 c94 42 198 54 299 33z
m645 -269 c87 -40 146 -98 191 -188 l37 -76 3 -603 c2 -512 1 -603 -11 -603
-8 0 -46 16 -84 35 -86 43 -144 103 -186 193 l-32 67 -6 535 c-5 470 -8 542
-23 590 -10 30 -20 63 -23 73 -5 16 -1 18 33 12 22 -4 67 -20 101 -35z m-302
-544 c34 -35 42 -72 21 -110 -14 -25 -146 -138 -236 -203 -15 -11 -22 1 -63
103 l-45 115 116 59 c132 66 170 73 207 36z m-419 -286 c30 -74 54 -137 54
-140 0 -3 -56 -47 -124 -98 l-123 -92 -162 0 c-159 0 -162 1 -186 25 -25 24
-25 26 -25 205 0 137 3 180 13 181 6 0 109 13 227 29 118 15 228 27 244 27 26
-2 31 -9 82 -137z m474 -415 l0 -395 -280 0 -280 0 0 180 0 180 278 215 c152
118 278 215 280 215 1 0 2 -178 2 -395z m-2326 313 c55 -16 138 -99 154 -154
7 -23 12 -67 12 -98 l0 -56 -320 0 -320 0 0 160 0 160 216 0 c141 0 231 -4
258 -12z m-634 -148 l0 -80 -80 0 -80 0 0 80 0 80 80 0 80 0 0 -80z m215 -345
c16 -15 25 -36 25 -55 0 -19 -9 -40 -25 -55 -23 -24 -31 -25 -135 -25 -104 0
-112 1 -135 25 -16 15 -25 36 -25 55 0 19 9 40 25 55 23 24 31 25 135 25 104
0 112 -1 135 -25z m764 8 c13 -12 80 -172 182 -438 88 -231 165 -430 169 -441
8 -20 -6 -27 -196 -109 -113 -48 -206 -86 -209 -84 -2 2 -49 125 -104 273
l-101 269 0 169 c0 166 0 169 -25 193 -23 24 -31 25 -135 25 -104 0 -112 1
-135 25 -16 15 -25 36 -25 55 0 19 9 40 25 55 l24 25 254 0 c228 0 257 -2 276
-17z m-444 -328 c25 -24 25 -26 25 -215 0 -189 0 -191 -25 -215 -24 -25 -26
-25 -215 -25 -257 0 -240 -17 -240 240 0 257 -17 240 240 240 189 0 191 0 215
-25z m2137 -112 l-27 -58 -3 -942 -2 -943 -200 0 -200 0 0 374 c0 439 6 414
-104 427 -132 16 -236 89 -292 207 -24 48 -28 73 -31 157 -3 86 0 107 19 153
15 35 111 164 273 367 l250 314 172 1 172 0 -27 -57z m438 23 c21 -13 48 -42
61 -63 23 -36 24 -47 27 -250 l3 -213 -200 0 -201 0 0 193 c0 105 5 209 11
230 13 46 76 113 121 126 53 16 135 6 178 -23z m-1595 -1102 c114 -277 187
-441 199 -450 28 -19 70 -18 95 4 12 10 39 71 66 147 25 71 45 130 45 132 0 1
20 -6 45 -17 24 -10 60 -22 80 -26 l35 -6 0 -239 0 -239 -32 -20 c-94 -58
-227 -82 -330 -61 -123 26 -244 114 -302 222 -36 65 -348 883 -338 887 4 1 59
25 122 52 63 27 120 49 125 50 6 0 91 -196 190 -436z m1125 -1144 l0 -120
-200 0 -200 0 0 120 0 120 200 0 200 0 0 -120z"/>
<path d="M202 4188 c-11 -15 -62 -115 -62 -123 0 -2 31 -21 70 -40 l70 -35 35
69 34 69 -22 15 c-25 16 -104 57 -110 57 -3 0 -9 -6 -15 -12z"/>
<path d="M458 3988 c-18 -35 -34 -66 -36 -69 -1 -3 29 -23 67 -43 l69 -36 36
64 c20 35 36 68 36 73 0 7 -121 73 -135 73 -3 0 -19 -28 -37 -62z"/>
<path d="M737 3832 l-36 -67 66 -35 c37 -19 69 -36 73 -38 7 -3 76 136 69 141
-14 12 -120 67 -128 67 -5 0 -25 -30 -44 -68z"/>
<path d="M80 3440 l0 -80 80 0 80 0 0 80 0 80 -80 0 -80 0 0 -80z"/>
<path d="M400 3440 l0 -80 80 0 80 0 0 80 0 80 -80 0 -80 0 0 -80z"/>
<path d="M720 3440 l0 -80 80 0 80 0 0 80 0 80 -80 0 -80 0 0 -80z"/>
<path d="M768 3151 l-66 -37 35 -67 c20 -37 40 -67 46 -67 8 0 111 55 126 67
6 4 -61 143 -68 142 -3 0 -36 -17 -73 -38z"/>
<path d="M490 3004 c-36 -20 -66 -37 -68 -39 -4 -3 68 -135 74 -135 13 0 134
66 134 73 0 8 -69 137 -73 137 -1 0 -31 -16 -67 -36z"/>
<path d="M208 2854 c-38 -19 -68 -37 -68 -39 0 -12 60 -124 69 -130 10 -5 101
35 128 57 9 8 4 26 -22 79 -20 38 -36 69 -38 69 -1 -1 -32 -17 -69 -36z"/>
</g>
</svg>
