<?xml version="1.0" standalone="no"?>
<!DOCTYPE svg PUBLIC "-//W3C//DTD SVG 20010904//EN"
 "http://www.w3.org/TR/2001/REC-SVG-20010904/DTD/svg10.dtd">
<svg version="1.0" xmlns="http://www.w3.org/2000/svg"
 width="512.000000pt" height="512.000000pt" viewBox="0 0 512.000000 512.000000"
 preserveAspectRatio="xMidYMid meet">

<g transform="translate(0.000000,512.000000) scale(0.100000,-0.100000)"
fill="#e9ebf8" stroke="none">
<path d="M2513 5100 c-30 -27 -35 -78 -31 -279 l3 -173 28 -24 c15 -13 37 -24
47 -24 10 0 32 11 47 24 l28 24 3 173 c2 95 1 192 -3 216 -7 50 -37 83 -75 83
-14 0 -36 -9 -47 -20z"/>
<path d="M1890 4730 c-19 -19 -25 -38 -20 -70 2 -21 89 -160 117 -187 44 -45
123 -13 123 48 0 26 -100 194 -128 216 -25 19 -69 16 -92 -7z"/>
<path d="M3138 4737 c-29 -23 -128 -190 -128 -217 0 -34 38 -70 74 -70 34 0
60 26 118 120 46 74 52 88 49 123 -3 45 -74 73 -113 44z"/>
<path d="M1458 4220 c-24 -25 -29 -36 -23 -58 9 -40 29 -55 136 -101 106 -45
131 -45 163 1 38 54 5 92 -125 147 -53 23 -102 41 -108 41 -7 0 -26 -14 -43
-30z"/>
<path d="M3510 4209 c-130 -55 -162 -93 -124 -147 32 -46 57 -46 163 -1 107
46 127 61 136 101 6 22 1 33 -23 58 -17 16 -36 30 -44 30 -7 0 -56 -19 -108
-41z"/>
<path d="M2115 3797 c-22 -8 -54 -21 -70 -29 -31 -16 -125 -110 -125 -125 0
-4 -4 -14 -9 -22 -7 -11 -20 -8 -67 15 -51 25 -71 29 -144 29 -73 0 -93 -4
-142 -28 -68 -33 -139 -109 -164 -172 l-17 -45 -61 0 c-58 0 -63 2 -92 37 -23
28 -38 36 -62 36 -78 0 -95 -76 -36 -156 43 -59 64 -67 165 -67 l79 0 0 -185
0 -185 -99 0 c-99 0 -99 0 -125 -31 -14 -17 -26 -34 -26 -38 0 -15 -97 -109
-140 -136 -76 -48 -146 -68 -245 -69 -109 -1 -172 18 -266 80 -116 77 -121 74
129 74 143 0 230 4 246 11 43 20 47 48 44 312 -3 241 -3 247 -26 269 -22 22
-30 23 -249 28 l-227 5 34 33 c91 85 251 133 382 112 65 -10 74 -9 98 8 28 21
38 69 20 101 -15 30 -82 45 -195 44 -210 -1 -389 -97 -505 -270 -53 -79 -63
-122 -36 -159 13 -18 32 -19 283 -24 l268 -5 3 -157 3 -158 -266 0 c-252 0
-266 -1 -285 -20 -47 -47 -4 -147 111 -261 72 -71 179 -132 279 -160 69 -19
243 -17 314 5 126 38 255 124 321 214 30 41 30 42 98 42 61 0 67 -2 67 -20 0
-31 37 -103 76 -148 21 -24 62 -55 101 -74 58 -28 77 -33 143 -32 77 0 150 23
194 62 16 14 20 15 24 2 11 -31 97 -111 146 -134 100 -49 219 -43 310 14 l46
29 14 -27 c8 -15 32 -44 53 -64 97 -94 248 -118 369 -58 34 17 76 47 94 66 31
36 32 36 74 24 24 -6 75 -15 115 -18 l71 -7 -203 -130 c-116 -75 -226 -153
-258 -185 -84 -83 -139 -212 -139 -325 0 -48 29 -79 74 -79 50 0 68 22 78 96
11 85 58 179 111 221 23 19 177 120 342 226 165 106 308 202 318 213 24 28 21
65 -8 93 -24 25 -26 25 -217 25 -106 0 -210 5 -230 11 -84 23 -143 129 -119
210 16 54 71 113 119 127 27 8 145 12 364 12 316 0 325 -1 368 -22 25 -13 54
-37 66 -55 28 -42 124 -426 124 -496 0 -37 -8 -68 -25 -103 -14 -27 -173 -226
-354 -443 -327 -392 -400 -492 -443 -606 -23 -59 -23 -68 -26 -587 l-3 -527
23 -20 c40 -38 97 -22 118 33 6 18 10 201 10 511 0 461 1 487 20 538 37 99 94
175 426 575 181 218 340 413 351 432 55 91 67 221 33 350 -11 41 -20 76 -20
76 0 1 27 -9 59 -22 237 -96 533 -18 697 184 83 102 104 172 64 212 -19 19
-33 20 -285 20 l-266 0 3 158 3 157 268 5 c251 5 270 6 283 24 35 48 -2 137
-98 239 -44 46 -60 57 -86 57 -35 0 -71 -29 -73 -57 -3 -35 3 -49 34 -80 l31
-33 -226 0 c-225 0 -227 0 -255 -24 l-28 -24 -3 -248 c-3 -265 1 -293 44 -313
16 -7 103 -11 246 -11 250 0 245 3 129 -74 -94 -62 -157 -81 -266 -80 -69 1
-104 6 -150 24 -112 43 -177 96 -194 157 -24 86 -120 180 -213 208 -33 9 -92
15 -165 15 l-113 0 0 120 0 120 179 0 c99 0 191 4 204 9 14 5 47 39 74 75 55
73 105 116 177 153 56 28 160 53 229 53 78 0 114 64 68 121 -17 22 -27 24 -98
23 -43 0 -103 -6 -133 -13 -129 -31 -267 -119 -340 -215 l-42 -56 -158 0 -157
0 -6 74 c-9 129 -83 237 -195 289 -73 34 -199 31 -272 -5 -31 -15 -69 -41 -84
-57 l-29 -30 -40 35 c-62 57 -120 78 -207 79 -88 0 -149 -20 -216 -71 l-45
-35 -39 31 c-86 68 -216 96 -305 67z m152 -148 c34 -13 80 -55 99 -91 11 -22
14 -108 14 -471 l0 -444 -23 -34 c-64 -94 -182 -114 -265 -44 -62 52 -62 50
-62 523 0 280 4 441 11 459 33 87 139 135 226 102z m551 -26 c71 -57 72 -62
72 -394 l0 -297 -35 -57 c-64 -106 -69 -215 -15 -323 l29 -56 -34 -32 c-59
-55 -161 -63 -224 -16 -42 31 -69 79 -76 135 -3 29 -5 252 -3 497 l3 445 27
46 c54 92 175 117 256 52z m469 22 c50 -21 72 -42 94 -90 16 -35 19 -69 19
-282 l0 -243 -149 0 c-82 0 -163 -3 -180 -6 l-31 -6 0 246 c0 302 9 333 105
377 49 23 94 24 142 4z m-1510 -144 c26 -12 52 -35 70 -62 l28 -42 3 -301 c4
-337 0 -365 -56 -421 -62 -62 -148 -69 -225 -19 -73 48 -77 67 -77 414 0 275
2 309 19 345 43 93 142 129 238 86z"/>
<path d="M1391 2324 c-20 -26 -21 -38 -21 -364 0 -376 7 -439 59 -555 18 -38
48 -92 69 -119 57 -77 78 -115 101 -183 20 -60 21 -82 21 -548 0 -407 2 -491
15 -514 23 -46 66 -54 109 -20 l26 20 0 503 c0 550 -1 556 -61 686 -17 36 -48
89 -70 118 -53 70 -85 134 -104 207 -12 47 -15 128 -15 405 l0 347 -23 21
c-33 31 -80 29 -106 -4z"/>
</g>
</svg>
