<?xml version="1.0" standalone="no"?>
<!DOCTYPE svg PUBLIC "-//W3C//DTD SVG 20010904//EN"
 "http://www.w3.org/TR/2001/REC-SVG-20010904/DTD/svg10.dtd">
<svg version="1.0" xmlns="http://www.w3.org/2000/svg"
 width="512.000000pt" height="512.000000pt" viewBox="0 0 512.000000 512.000000"
 preserveAspectRatio="xMidYMid meet">

<g transform="translate(0.000000,512.000000) scale(0.100000,-0.100000)"
fill="#e9ebf8" stroke="none">
<path d="M1496 5104 c-169 -41 -317 -189 -355 -355 -13 -56 -13 -172 0 -228
38 -165 183 -311 354 -356 273 -71 545 110 596 395 9 54 9 85 0 142 -47 289
-314 470 -595 402z"/>
<path d="M1130 4019 c-202 -33 -375 -223 -475 -522 -87 -260 -119 -533 -118
-1002 1 -356 6 -414 45 -468 37 -51 158 -91 158 -51 0 55 63 114 122 114 l24
0 -1 388 c0 401 7 505 46 710 21 107 73 280 90 296 5 6 9 -259 9 -717 0 -400
3 -727 6 -727 3 0 118 -31 255 -70 138 -38 255 -70 259 -70 5 0 11 71 12 158
l3 157 47 3 48 3 2 -178 3 -177 240 -68 c132 -37 252 -70 268 -73 l27 -7 0
884 c1 966 -1 936 55 742 66 -227 88 -454 85 -859 -2 -170 -3 -331 -3 -356 0
-141 172 -221 278 -128 67 59 70 79 70 499 0 397 -7 497 -51 738 -84 459 -285
743 -554 782 -82 12 -876 11 -950 -1z"/>
<path d="M810 2020 c-25 -25 -26 -62 -2 -84 11 -9 287 -90 638 -186 340 -94
625 -174 633 -178 9 -5 43 -121 86 -288 39 -153 75 -289 79 -302 5 -14 24 -30
49 -41 l42 -18 68 -354 c37 -195 68 -361 67 -369 -1 -60 53 -146 111 -176 36
-18 102 -18 137 0 31 16 74 61 90 92 6 12 39 151 72 310 33 158 62 289 64 291
2 3 683 -226 872 -293 l71 -26 6 -71 c11 -133 86 -240 204 -294 291 -134 592
175 453 464 -82 170 -284 245 -451 166 -65 -30 -108 -65 -144 -115 l-20 -28
-67 22 c-38 12 -68 25 -68 29 0 4 149 191 330 416 254 313 337 410 359 415 16
5 34 14 41 22 18 23 8 60 -20 72 -35 16 -2146 87 -2172 73 -27 -15 -21 -70 10
-85 12 -6 24 -13 27 -15 7 -7 97 -440 93 -445 -3 -2 -29 4 -59 14 l-54 19 -77
297 c-42 164 -80 302 -86 308 -11 11 -1317 378 -1344 378 -10 0 -27 -9 -38
-20z m1840 -1199 c111 -38 203 -71 206 -74 4 -4 -95 -489 -116 -569 -11 -41
-61 -88 -92 -88 -11 0 -35 15 -53 33 -25 25 -35 45 -40 83 -3 27 -33 189 -66
360 -32 171 -59 314 -59 318 0 11 17 6 220 -63z m1675 -280 c158 -71 167 -298
16 -378 -125 -66 -290 12 -308 145 -3 23 -4 42 -1 42 2 0 50 -16 107 -35 84
-28 107 -32 125 -23 28 15 36 28 36 59 0 37 -23 52 -133 89 l-98 32 23 25 c54
60 157 79 233 44z"/>
<path d="M1030 1017 c0 -869 -2 -844 59 -918 16 -19 53 -48 82 -64 106 -59
251 -31 328 62 63 76 61 55 61 849 l0 723 -42 12 c-24 6 -139 37 -257 70 -118
32 -218 59 -223 59 -4 0 -8 -357 -8 -793z"/>
<path d="M1660 942 c0 -788 -2 -768 73 -849 50 -54 97 -80 164 -89 107 -14
224 51 274 153 24 48 24 52 27 421 l3 373 -72 282 c-39 155 -77 287 -83 293
-6 7 -87 33 -181 58 -93 26 -178 49 -187 52 -17 5 -18 -33 -18 -694z"/>
</g>
</svg>
