<?xml version="1.0" standalone="no"?>
<!DOCTYPE svg PUBLIC "-//W3C//DTD SVG 20010904//EN"
 "http://www.w3.org/TR/2001/REC-SVG-20010904/DTD/svg10.dtd">
<svg version="1.0" xmlns="http://www.w3.org/2000/svg"
 width="512.000000pt" height="512.000000pt" viewBox="0 0 512.000000 512.000000"
 preserveAspectRatio="xMidYMid meet">

<g transform="translate(0.000000,512.000000) scale(0.100000,-0.100000)"
fill="#e9ebf8" stroke="none">
<path d="M1517 5104 c-140 -25 -323 -110 -346 -160 -20 -45 17 -104 65 -104
10 0 63 22 118 50 221 108 441 106 661 -8 102 -53 227 -181 283 -289 71 -138
82 -199 82 -470 0 -268 6 -255 -96 -203 -114 56 -207 181 -220 295 -3 28 -10
62 -16 76 -9 26 -44 49 -73 49 -29 0 -62 -46 -79 -110 -10 -36 -31 -88 -47
-117 -36 -63 -131 -152 -193 -183 -94 -45 -135 -50 -425 -50 l-274 0 6 243 c6
257 14 315 62 422 32 73 32 98 -2 125 -60 47 -108 12 -154 -108 -43 -116 -50
-177 -56 -464 l-6 -276 -43 -7 c-53 -8 -130 -58 -161 -104 -67 -100 -49 -230
43 -311 45 -39 92 -60 137 -60 l33 0 12 -70 c36 -211 180 -428 367 -556 l60
-40 3 -136 3 -135 -40 10 c-31 8 -44 8 -61 -4 -23 -15 -259 -453 -260 -481 0
-13 -85 -60 -312 -174 -309 -155 -314 -158 -390 -234 -58 -58 -86 -96 -113
-151 -63 -133 -65 -152 -65 -765 0 -613 -3 -587 67 -600 26 -5 37 -1 57 19
l26 26 0 544 c0 326 4 566 10 598 16 82 57 158 124 225 57 57 85 73 394 227
288 143 336 164 353 154 18 -11 19 -26 19 -223 0 -207 0 -211 23 -232 13 -12
33 -22 45 -22 12 0 114 34 228 75 206 75 207 75 308 75 102 0 102 0 307 -75
112 -41 214 -75 227 -75 13 0 34 11 47 25 25 24 25 24 25 234 0 190 2 211 18
219 13 7 84 -23 291 -125 267 -131 277 -136 345 -206 58 -58 91 -106 174 -252
l102 -180 0 -127 c0 -108 3 -129 19 -149 23 -29 81 -31 110 -5 21 19 21 29 23
640 l3 621 220 0 220 0 5 -428 c4 -365 7 -429 20 -437 48 -31 103 -19 120 26
7 17 10 194 8 484 -3 425 -4 459 -21 478 -10 11 -31 22 -48 26 l-29 6 0 89 0
89 138 4 c112 3 146 8 183 25 59 27 119 85 147 146 l22 47 354 0 355 0 20 26
c28 35 26 69 -4 99 -24 25 -25 25 -219 25 -195 0 -196 0 -200 23 -41 228 -98
363 -210 504 -147 185 -390 324 -611 351 l-60 7 -5 57 c-6 69 -25 92 -76 92
-50 0 -74 -31 -74 -95 0 -31 -5 -51 -12 -53 -7 -2 -46 -9 -85 -15 -391 -60
-714 -390 -783 -798 l-12 -73 -194 0 c-194 0 -195 0 -219 -25 -32 -31 -33 -74
-2 -103 23 -22 28 -22 374 -22 l351 0 27 -55 c41 -84 142 -155 221 -155 24 0
24 -2 24 -94 l0 -94 -29 -7 c-16 -3 -37 -15 -47 -27 -18 -19 -19 -48 -24 -407
l-5 -386 -39 70 c-25 44 -71 102 -125 156 -86 86 -87 87 -341 214 -191 95
-256 133 -257 147 -1 10 -55 119 -120 243 -128 245 -142 261 -204 238 l-29
-11 0 138 0 138 46 27 c102 60 246 220 307 340 26 53 72 195 82 258 5 34 9 37
38 37 39 0 101 28 143 63 106 90 95 288 -19 366 -47 31 -98 51 -133 51 l-24 0
0 270 c0 301 -9 369 -62 499 -87 209 -280 397 -489 475 -143 54 -307 68 -462
40z m517 -1174 c68 -89 239 -189 324 -190 l22 0 0 -203 c0 -170 -3 -217 -20
-281 -50 -197 -192 -373 -370 -459 -414 -200 -883 14 -1006 458 -12 43 -18
118 -21 267 l-5 206 303 4 c342 5 372 10 497 85 67 41 163 130 190 176 17 28
17 28 32 7 8 -11 32 -43 54 -70z m-1224 -350 c0 -84 -1 -90 -21 -90 -11 0 -34
14 -51 30 -26 27 -30 36 -25 68 7 41 46 82 78 82 17 0 19 -8 19 -90z m1773 78
c34 -18 46 -39 47 -81 0 -45 -35 -87 -75 -87 -25 0 -25 0 -25 90 0 97 5 104
53 78z m1326 -228 c311 -88 540 -345 590 -662 l8 -48 -814 0 -814 0 6 38 c24
138 83 276 165 384 117 155 312 272 512 307 83 15 262 5 347 -19z m-2379 -847
c99 -18 263 -12 350 12 30 8 56 15 58 15 1 0 1 -66 0 -147 l-3 -147 -130 -69
-130 -69 -132 68 -133 69 0 149 c0 137 1 148 18 141 9 -4 55 -14 102 -22z
m2644 -28 c-3 -8 -25 -23 -48 -35 -37 -18 -62 -20 -208 -20 l-167 0 -20 -26
c-19 -24 -21 -40 -21 -165 l0 -139 -125 0 -125 0 0 145 c0 132 -2 147 -20 165
-11 11 -28 20 -37 21 -96 6 -131 12 -160 30 -18 11 -33 25 -33 30 0 5 197 9
485 9 420 0 484 -2 479 -15z m-2751 -414 l177 -94 0 -83 c0 -68 -3 -84 -15
-84 -8 0 -106 36 -217 81 -111 44 -210 81 -220 82 -10 1 -18 3 -18 6 0 16 97
191 105 189 6 -2 90 -45 188 -97z m746 5 c28 -51 51 -95 51 -98 0 -2 -8 -4
-18 -5 -10 -1 -109 -38 -220 -82 -111 -45 -209 -81 -217 -81 -12 0 -15 16 -15
84 l0 84 178 95 c97 53 180 96 184 96 4 1 29 -41 57 -93z m-689 -472 l0 -80
-47 -16 c-27 -8 -85 -29 -130 -46 l-83 -31 0 179 0 178 130 -51 130 -52 0 -81z
m648 -83 l-3 -88 -127 46 -128 46 0 80 0 80 128 50 127 51 3 -88 c1 -48 1
-128 0 -177z m-408 84 l0 -55 -45 0 -45 0 0 55 0 55 45 0 45 0 0 -55z"/>
<path d="M1465 3115 c-50 -49 -23 -105 77 -154 99 -50 214 -41 307 23 48 34
64 66 50 103 -23 60 -72 68 -139 22 -39 -27 -52 -30 -97 -27 -36 3 -62 13 -87
31 -43 34 -80 34 -111 2z"/>
<path d="M2679 941 l-24 -19 -3 -423 c-2 -291 1 -432 8 -450 11 -25 46 -49 74
-49 7 0 25 9 40 21 l26 20 2 315 3 315 195 -242 c107 -133 209 -254 227 -270
86 -75 215 -116 322 -103 216 27 372 171 401 371 13 93 13 362 -1 402 -19 54
-79 69 -116 29 -20 -21 -21 -37 -25 -228 -3 -181 -6 -210 -24 -251 -51 -111
-148 -173 -274 -173 -132 -1 -141 7 -447 385 -145 178 -274 334 -288 347 -32
27 -65 28 -96 3z"/>
<path d="M620 740 c-19 -19 -20 -33 -20 -360 0 -336 0 -339 22 -360 44 -41
111 -13 123 52 3 18 5 172 3 341 l-3 309 -24 19 c-30 25 -76 24 -101 -1z"/>
</g>
</svg>
